<?xml version="1.0" encoding="UTF-8" standalone="no"?>
<svg
   width="4017"
   height="903"
   xml:space="preserve"
   overflow="hidden"
   version="1.1"
   id="svg111"
   sodipodi:docname="banner.svg"
   inkscape:version="1.1 (c68e22c387, 2021-05-23)"
   xmlns:inkscape="http://www.inkscape.org/namespaces/inkscape"
   xmlns:sodipodi="http://sodipodi.sourceforge.net/DTD/sodipodi-0.dtd"
   xmlns="http://www.w3.org/2000/svg"
   xmlns:svg="http://www.w3.org/2000/svg"><sodipodi:namedview
     id="namedview113"
     pagecolor="#ffffff"
     bordercolor="#666666"
     borderopacity="1.0"
     inkscape:pageshadow="2"
     inkscape:pageopacity="0.0"
     inkscape:pagecheckerboard="0"
     showgrid="false"
     inkscape:zoom="0.26786159"
     inkscape:cx="2006.6334"
     inkscape:cy="449.8592"
     inkscape:window-width="1920"
     inkscape:window-height="1009"
     inkscape:window-x="3832"
     inkscape:window-y="-8"
     inkscape:window-maximized="1"
     inkscape:current-layer="g109" /><defs
     id="defs25"><clipPath
       id="clip0"><rect
         x="217"
         y="0"
         width="4017"
         height="903"
         id="rect2" /></clipPath><linearGradient
       x1="217"
       y1="451.5"
       x2="4234"
       y2="451.5"
       gradientUnits="userSpaceOnUse"
       spreadMethod="reflect"
       id="fill1"><stop
         offset="0"
         stop-color="#548235"
         id="stop5" /><stop
         offset="0.31"
         stop-color="#548235"
         id="stop7" /><stop
         offset="0.89"
         stop-color="#8DB771"
         id="stop9" /><stop
         offset="1"
         stop-color="#A9D18E"
         id="stop11" /></linearGradient><radialGradient
       cx="1418322"
       cy="0.0625"
       r="2013001"
       fx="1418322"
       fy="0"
       gradientUnits="userSpaceOnUse"
       spreadMethod="pad"
       id="fill2"
       gradientTransform="matrix(0.000257151 0.000253213 -0.000253213 0.000257151 1652.3 96.0792)"><stop
         offset="0"
         stop-color="#E2F0D9"
         stop-opacity="0"
         id="stop14" /><stop
         offset="0.19"
         stop-color="#E2F0D9"
         stop-opacity="0"
         id="stop16" /><stop
         offset="0.29"
         stop-color="#E2F0D9"
         stop-opacity="0.309804"
         id="stop18" /><stop
         offset="0.68"
         stop-color="#E2F0D9"
         stop-opacity="0"
         id="stop20" /><stop
         offset="1"
         stop-color="#E2F0D9"
         stop-opacity="0"
         id="stop22" /></radialGradient></defs><g
     clip-path="url(#clip0)"
     transform="translate(-217 0)"
     id="g109"><path
       d="M217 150.501C217 67.3818 284.382-6.39273e-14 367.501-6.39273e-14L4083.5 0C4166.62-3.19636e-14 4234 67.3818 4234 150.501L4234 752.499C4234 835.618 4166.62 903 4083.5 903L367.501 903C284.382 903 217 835.618 217 752.499Z"
       fill="url(#fill1)"
       fill-rule="evenodd"
       id="path27" /><path
       d="M1855.5 257.335C1855.5 207.168 1896.17 166.5 1946.34 166.5L2309.66 166.5C2359.83 166.5 2400.5 207.168 2400.5 257.335L2400.5 620.665C2400.5 670.832 2359.83 711.5 2309.66 711.5L1946.34 711.5C1896.17 711.5 1855.5 670.832 1855.5 620.665Z"
       stroke="#FFFFFF"
       stroke-width="4.58333"
       stroke-miterlimit="8"
       fill="none"
       fill-rule="evenodd"
       id="path29" /><path
       d="M2021 355 2127.83 290 2238 350 2238 476.667 2134.51 540 2021 481.667 2021 355Z"
       stroke="#FFFFFF"
       stroke-width="13.75"
       stroke-miterlimit="8"
       fill="none"
       fill-rule="evenodd"
       id="path31" /><text
       fill="#FFFFFF"
       font-family="Arial,Arial_MSFontService,sans-serif"
       font-weight="400"
       font-size="92"
       transform="matrix(1 0 0 1 1936.21 645)"
       id="text33">graphium</text><path
       d="M1141.59 420.516 1143.95 331.594"
       stroke="#FFFFFF"
       stroke-width="10.3125"
       stroke-miterlimit="8"
       fill="none"
       fill-rule="evenodd"
       id="path35" /><path
       d="M1141.59 420.516 1215.54 464.588 1214.4 550.937 1137.21 591.719 1065.35 549.141 1064.4 461.298 1141.59 420.516Z"
       stroke="#FFFFFF"
       stroke-width="10.3125"
       stroke-miterlimit="8"
       fill="none"
       fill-rule="evenodd"
       id="path37" /><path
       d="M1216.38 461.531 1304.54 434.065 1357.8 509.486 1302.56 583.566 1215.16 553.928Z"
       stroke="#FFFFFF"
       stroke-width="10.3125"
       stroke-miterlimit="8"
       fill="none"
       fill-rule="evenodd"
       id="path39" /><path
       d="M1411.33 246.291 1354.08 192.305"
       stroke="#FFFFFF"
       stroke-width="10.3125"
       stroke-miterlimit="8"
       fill="none"
       fill-rule="evenodd"
       id="path41" /><path
       d="M1304.6 430.154 1316.2 366.661 1393.29 326.287 1411.33 246.291 1488.53 205.064"
       stroke="#FFFFFF"
       stroke-width="10.3125"
       stroke-miterlimit="8"
       fill="none"
       fill-rule="evenodd"
       id="path43" /><path
       d="M2991.46 487.513 2993.82 398.59"
       stroke="#FFFFFF"
       stroke-width="10.3125"
       stroke-miterlimit="8"
       fill="none"
       fill-rule="evenodd"
       id="path45" /><path
       d="M2991.46 487.512 3065.41 531.584 3064.27 617.933 2987.08 658.715 2915.22 616.137 2914.27 528.294 2991.46 487.512Z"
       stroke="#FFFFFF"
       stroke-width="10.3125"
       stroke-miterlimit="8"
       fill="none"
       fill-rule="evenodd"
       id="path47" /><path
       d="M3066.25 528.527 3154.41 501.061 3207.67 576.482 3152.43 650.562 3065.03 620.924Z"
       stroke="#FFFFFF"
       stroke-width="10.3125"
       stroke-miterlimit="8"
       fill="none"
       fill-rule="evenodd"
       id="path49" /><path
       d="M3261.2 313.287 3203.95 259.301"
       stroke="#FFFFFF"
       stroke-width="10.3125"
       stroke-miterlimit="8"
       fill="none"
       fill-rule="evenodd"
       id="path51" /><path
       d="M3154.47 497.151 3166.07 433.657 3243.16 393.283 3261.2 313.287 3338.4 272.06"
       stroke="#FFFFFF"
       stroke-width="10.3125"
       stroke-miterlimit="8"
       fill="none"
       fill-rule="evenodd"
       id="path53" /><path
       d="M0 367C-4.6724e-14 164.311 164.311-4.6724e-14 367-9.3448e-14 569.688-1.86896e-13 734 164.311 734 367 734 569.688 569.688 734 367 734 164.311 734-2.3362e-13 569.688 0 367Z"
       stroke="#FFFFFF"
       stroke-width="12.6042"
       stroke-miterlimit="8"
       stroke-opacity="0.360784"
       fill="none"
       fill-rule="evenodd"
       transform="matrix(1 0 0 -1 2790.5 842.5)"
       id="path55" /><path
       d="M3110.83 627.454 3168.28 601.749 3193.99 659.206 3136.53 684.911Z"
       stroke="#FFFFFF"
       stroke-width="12.6042"
       stroke-miterlimit="8"
       stroke-opacity="0.360784"
       fill="none"
       fill-rule="evenodd"
       id="path57" /><path
       d="M2959.5 389.328 2980.02 382.638 2992.5 364.5 3004.98 382.638 3025.5 389.328 3012.7 407.227 3012.89 429.5 2992.5 422.424 2972.1 429.5 2972.3 407.227Z"
       stroke="#FFFFFF"
       stroke-width="12.6042"
       stroke-miterlimit="8"
       stroke-opacity="0.360784"
       fill="none"
       fill-rule="evenodd"
       id="path59" /><path
       d="M5.97417-1.85346 32.3956 5.77278 30.489 12.3781 4.06761 4.7519ZM52.2116 11.4925 78.633 19.1187 76.7265 25.724 50.3051 18.0978ZM98.4491 24.8384 124.87 32.4646 122.964 39.07 96.5425 31.4437ZM144.687 38.1843 171.108 45.8105 169.201 52.4159 142.78 44.7896ZM190.924 51.5302 217.345 59.1564 215.439 65.7618 189.017 58.1355ZM15.2935 23.8034 0.00464931 0.00134163 25.6256-11.9926C27.345-12.7975 29.3913-12.0562 30.1962-10.3368 31.0011-8.61737 30.2598-6.57101 28.5404-5.76611L6.47748 4.56224 7.91231-0.408798 21.078 20.0878C22.104 21.6852 21.6408 23.8118 20.0435 24.8379 18.4462 25.8639 16.3195 25.4007 15.2935 23.8034Z"
       fill="#FFFFFF"
       fill-opacity="0.501961"
       transform="matrix(-1 0 0 1 1654.49 296.5)"
       id="path61" /><path
       d="M1652.33 96.0996 1924.92 370.34C1901.5 393.624 1888.39 425.328 1888.53 458.356 1888.66 491.383 1902.03 522.978 1925.65 546.068L1655.32 822.547C1557.7 727.094 1502.42 596.485 1501.85 459.95 1501.29 323.416 1555.49 192.355 1652.33 96.0996Z"
       fill="url(#fill2)"
       fill-rule="evenodd"
       id="path63" /><path
       d="M2397.23 517.202 2405.77 527.784 2405.72 527.73 2411.75 534.84 2407.38 538.545 2401.33 531.408 2392.77 520.799ZM2423.06 547.687 2423.07 547.694 2423.02 547.642 2431.87 557.097 2431.79 557.02 2438.86 564.028 2434.83 568.097 2427.72 561.052 2418.81 551.531 2418.78 551.497ZM2451.03 575.964 2468.09 591.262 2464.27 595.528 2447.2 580.23ZM2481.33 601.993 2486.82 606.44 2486.71 606.355 2499.5 615.722 2496.12 620.344 2483.27 610.935 2477.73 606.444ZM2513.51 625.441 2525.38 633.299 2525.27 633.229 2532.72 637.685 2529.77 642.601 2522.27 638.112 2510.34 630.218ZM2547.41 646.349 2565.42 656.091 2565.32 656.038 2567.51 657.113 2564.99 662.258 2562.75 661.158 2544.69 651.388ZM2582.95 664.674 2585.99 666.162 2585.89 666.117 2603.74 674.049 2601.41 679.285 2583.51 671.331 2580.43 669.819ZM2619.54 680.562 2628.16 684.048 2628.08 684.016 2640.85 688.733 2638.87 694.107 2626.05 689.376 2617.39 685.873ZM2656.97 694.466 2671.68 699.453 2671.62 699.432 2678.67 701.64 2676.95 707.107 2669.88 704.889 2655.13 699.892ZM2695.02 706.74 2716.49 713.008 2716.41 712.985 2716.94 713.124 2715.5 718.669 2714.93 718.52 2693.41 712.24ZM2733.58 717.45 2739.37 718.957 2739.26 718.93 2755.8 722.502 2754.59 728.102 2737.99 724.517 2732.13 722.995ZM2772.57 725.695 2786.26 728.066 2786.14 728.048 2795.09 729.227 2794.34 734.907 2785.33 733.721 2771.59 731.34ZM2812.02 731.387 2834.69 733.464 2834.58 733.456 2834.73 733.464 2834.43 739.185 2834.23 739.174 2811.5 737.092ZM2851.9 734.366 2859.48 734.765 2859.37 734.761 2874.69 734.985 2874.61 740.714 2859.24 740.489 2851.6 740.087ZM2891.77 734.969 2910.18 734.557 2910.08 734.561 2914.57 734.299 2914.91 740.018 2910.36 740.284 2891.9 740.697ZM2931.73 733.297 2936.08 733.043 2935.98 733.05 2954.46 731.322 2954.99 737.026 2936.47 738.759 2932.07 739.016ZM2971.44 729.419 2988.96 727.179 2988.87 727.192 2994.06 726.355 2994.97 732.011 2989.74 732.855 2972.17 735.102ZM3011.02 723.615 3015.93 722.823 3015.84 722.839 3033.46 719.416 3034.55 725.04 3016.89 728.472 3011.94 729.271ZM3050.2 715.939 3070.9 711.251 3070.81 711.271 3072.45 710.848 3073.88 716.396 3072.2 716.83 3051.46 721.526ZM3089.1 706.555 3098.89 704.03 3098.81 704.051 3111.11 700.497 3112.7 706.001 3100.36 709.567 3090.53 712.103ZM3102.97 686.89 3128 698.6 3113.07 721.855C3112.21 723.186 3110.44 723.572 3109.11 722.718 3107.78 721.863 3107.39 720.091 3108.25 718.759L3121.41 698.26 3122.6 702.402 3100.54 692.079C3099.1 691.408 3098.49 689.703 3099.16 688.27 3099.83 686.837 3101.53 686.219 3102.97 686.89Z"
       fill="#FFFFFF"
       id="path65" /><path
       d="M2402.97 413.328 2421.83 406.047 2424.45 405.119 2426.36 410.52 2423.78 411.434 2423.85 411.406 2405.03 418.672ZM2440.65 399.382 2440.69 399.369 2459.5 393.278 2462.62 392.356 2464.25 397.851 2461.16 398.762 2461.23 398.74 2442.49 404.808 2442.56 404.783 2442.56 404.784ZM2479.18 387.493 2496.93 382.734 2501.41 381.646 2502.76 387.213 2498.31 388.294 2498.38 388.277 2480.67 393.027ZM2518.19 377.636 2534.03 374.168 2540.67 372.863 2541.77 378.484 2535.16 379.784 2535.22 379.771 2519.42 383.232ZM2557.61 369.639 2570.71 367.333 2580.26 365.837 2581.15 371.497 2571.63 372.989 2571.68 372.98 2558.6 375.281ZM2597.34 363.378 2620.06 360.402 2620.81 366.083 2598.08 369.059ZM2637.23 358.519 2660.05 356.197 2660.09 356.194 2660.54 361.906 2660.53 361.906 2660.6 361.9 2637.81 364.218ZM2677.23 354.845 2694.63 353.475 2700.15 353.179 2700.46 358.9 2694.97 359.194 2695.04 359.189 2677.68 360.557ZM2717.41 352.425 2728.64 352.161 2740.4 352.213 2740.38 357.942 2728.66 357.89 2728.74 357.889 2717.54 358.153ZM2757.66 352.607 2762.07 352.741 2778.55 353.632 2780.67 353.792 2780.24 359.505 2778.15 359.347 2778.21 359.351 2761.79 358.463 2761.86 358.466 2757.48 358.333ZM2797.88 355.175 2820.68 357.526 2820.09 363.225 2797.29 360.874ZM2837.82 359.604 2858.64 362.352 2860.59 362.646 2859.73 368.311 2857.81 368.021 2857.86 368.029 2837.07 365.284ZM2877.58 365.21 2889.56 367.016 2900.25 368.718 2899.35 374.376 2888.67 372.676 2888.69 372.68 2876.73 370.875ZM2917.23 371.418 2919.83 371.832 2939.86 374.957 2938.98 380.618 2918.93 377.49 2916.33 377.076ZM2931.25 358.096 2949 379.282 2925.64 394.056C2924.31 394.902 2922.54 394.503 2921.69 393.166 2920.84 391.829 2921.24 390.06 2922.58 389.214L2943.17 376.19 2942.5 380.45 2926.86 361.774C2925.84 360.561 2926 358.755 2927.22 357.739 2928.43 356.723 2930.24 356.883 2931.25 358.096Z"
       fill="#FFFFFF"
       id="path67" /><path
       d="M2399.56 382.521 2419.39 371.032 2422.26 375.99 2402.44 387.479ZM2434.36 362.511 2451.37 352.962 2454.4 351.313 2457.14 356.347 2454.12 357.987 2454.16 357.967 2437.17 367.506ZM2469.5 343.105 2476.09 339.525 2489.78 332.335 2492.44 337.407 2478.77 344.587 2478.81 344.568 2472.24 348.139ZM2505.07 324.394 2523.24 315.175 2525.56 314.043 2528.07 319.19 2525.78 320.312 2525.82 320.294 2507.66 329.504ZM2541 306.494 2545.7 304.195 2561.74 296.647 2564.18 301.831 2548.16 309.369 2548.2 309.351 2543.52 311.641ZM2577.4 289.459 2588.46 284.455 2598.38 280.145 2600.67 285.4 2590.76 289.702 2590.8 289.684 2579.76 294.679ZM2614.22 273.365 2628.43 267.453 2635.47 264.65 2637.59 269.972 2630.57 272.767 2630.61 272.751 2616.43 278.654ZM2651.5 258.336 2665.73 252.917 2673 250.278 2674.95 255.663 2667.71 258.295 2667.75 258.279 2653.54 263.69ZM2689.22 244.481 2700.49 240.579 2710.97 237.122 2712.77 242.563 2702.31 246.013 2702.35 245.999 2691.1 249.895ZM2727.38 231.875 2732.82 230.167 2748.11 225.599 2749.39 225.234 2750.96 230.744 2749.69 231.105 2749.73 231.094 2734.48 235.651 2734.52 235.639 2729.1 237.341ZM2765.97 220.562 2777.01 217.572 2788.16 214.69 2789.59 220.236 2778.46 223.115 2778.49 223.106 2767.47 226.092ZM2804.89 210.53 2816.39 207.794 2827.22 205.299 2828.51 210.882 2817.68 213.374 2817.7 213.37 2806.22 216.104ZM2844.02 201.536 2851.34 199.921 2862.07 197.562 2866.4 196.603 2867.64 202.197 2863.3 203.157 2852.57 205.515 2845.26 207.131ZM2883.13 192.834 2891.73 190.811 2891.69 190.82 2900.81 188.559 2900.73 188.578 2905.26 187.328 2906.78 192.85 2902.22 194.11 2893.06 196.384 2884.44 198.411ZM2921.79 182.723 2926.5 181.377 2935.95 178.93 2944.12 177.006 2945.43 182.582 2937.3 184.499 2937.36 184.484 2927.98 186.914 2928.04 186.895 2923.37 188.232ZM2961.04 173.413 2968.29 171.998 2980.22 169.887 2983.69 169.335 2984.59 174.992 2981.15 175.541 2981.19 175.533 2969.31 177.636 2969.36 177.626 2962.14 179.036ZM3000.73 166.758 3005.51 166.079 3018.76 164.421 3023.56 163.901 3024.18 169.597 3019.4 170.114 3019.45 170.108 3006.25 171.761 3006.29 171.754 3001.54 172.43ZM3040.75 162.263 3060.28 160.663 3063.7 160.508 3063.96 166.232 3060.59 166.384 3060.69 166.377 3041.21 167.973ZM3080.87 159.732 3088.9 159.369 3103.89 159.295 3103.92 165.024 3088.99 165.098 3089.1 165.095 3081.13 165.455ZM3121.21 159.366 3144.1 160.297 3143.87 166.021 3120.97 165.09ZM3161.43 161.603 3174.62 163.031 3184.27 164.383 3183.47 170.057 3173.87 168.711 3173.95 168.722 3160.82 167.299ZM3201.32 167.228 3201.72 167.3 3214.77 170.097 3223.86 172.45 3222.42 177.997 3213.39 175.659 3213.51 175.686 3200.58 172.913 3200.68 172.934 3200.33 172.871ZM3240.58 177.498 3251.21 181.399 3262 186.083 3259.71 191.338 3249 186.687 3249.16 186.749 3238.61 182.877ZM3277.45 194.449 3282.52 197.539 3291.56 204.105 3296.3 208.245 3292.53 212.561 3287.89 208.505 3288.09 208.665 3279.24 202.243 3279.44 202.371 3274.47 199.342ZM3304 193.389 3305 221.005 3277.49 218.329C3275.92 218.176 3274.77 216.775 3274.92 215.2 3275.07 213.626 3276.47 212.474 3278.05 212.627L3302.29 214.986 3299.15 217.941 3298.27 193.596C3298.22 192.015 3299.45 190.687 3301.03 190.629 3302.61 190.572 3303.94 191.808 3304 193.389Z"
       fill="#FFFFFF"
       id="path69" /><text
       fill="#FFFFFF"
       font-family="Amasis MT Pro,Amasis MT Pro_MSFontService,sans-serif"
       font-weight="400"
       font-size="183"
       transform="matrix(1 0 0 1 2062.57 470)"
       id="text71">∞</text><path
       d="M2886 572.5C2886 557.312 2898.31 545 2913.5 545 2928.69 545 2941 557.312 2941 572.5 2941 587.688 2928.69 600 2913.5 600 2898.31 600 2886 587.688 2886 572.5Z"
       fill="#FFFFFF"
       fill-rule="evenodd"
       fill-opacity="0.478431"
       id="path73" /><path
       d="M3377.5 272.5 3361.76 278.097 3361.76 266.903ZM3366.07 244.922 3358.91 260.009 3350.99 252.094ZM3338.5 233.5 3344.1 249.238 3332.9 249.238ZM3310.92 244.922 3326.01 252.094 3318.09 260.009ZM3299.5 272.5 3315.24 266.903 3315.24 278.097ZM3310.92 300.074 3318.09 284.99 3326.01 292.905ZM3338.5 311.5 3332.9 295.762 3344.1 295.762ZM3366.07 300.074 3350.99 292.905 3358.91 284.99ZM3319 272.5C3319 261.73 3327.73 253 3338.5 253 3349.27 253 3358 261.73 3358 272.5 3358 283.269 3349.27 292 3338.5 292 3327.73 292 3319 283.269 3319 272.5Z"
       stroke="#FFFFFF"
       stroke-width="12.6042"
       stroke-miterlimit="8"
       stroke-opacity="0.360784"
       fill="none"
       fill-rule="evenodd"
       id="path75" /><path
       d="M72.0381 91.9233 64.3558 93.4743 58.0288 92.1968 55.3854 103.156C54.6092 106.952 54.1255 110.295 54.1513 112.833 54.2544 122.986 61.314 127.107 65.0523 127.107 68.7883 127.107 76.5227 122.906 76.5743 112.833 76.5968 108.426 74.9454 101.985 72.8652 94.8446ZM29.7912 87.0071C26.3333 87.0071 23.5303 89.8101 23.5303 93.2679 23.5303 96.7257 26.3333 99.5287 29.7912 99.5287 33.249 99.5287 36.052 96.7257 36.052 93.2679 36.052 89.8101 33.249 87.0071 29.7912 87.0071ZM100.933 87.0071C97.4756 87.0071 94.6726 89.8101 94.6726 93.2679 94.6726 96.7257 97.4756 99.5287 100.933 99.5287 104.391 99.5287 107.194 96.7257 107.194 93.2679 107.194 89.8101 104.391 87.0071 100.933 87.0071ZM70.0958 64.8314 68.7831 68.0006 65.8784 69.2038 66.5835 72.6599 72.0381 91.9233 75.9946 91.1245C84.0435 87.7201 90.2914 80.8918 92.9123 72.4652L93.1954 70.592 90.7563 70.0038C86.4023 68.8584 81.9445 67.6369 77.733 66.5556ZM58.4791 64.5002 49.375 66.5556C45.1634 67.6369 40.7055 68.8584 36.3514 70.0038L35.4596 70.2189 35.7993 72.4652C38.4202 80.8918 44.6681 87.7201 52.717 91.1245L58.0288 92.1968 58.3762 90.7558C59.5216 86.4018 60.7433 81.9438 61.8246 77.7326L63.6716 69.551 59.9289 68.0006ZM64.4676 63.9212 64.4311 66.1871 63.6716 69.551 64.356 69.8343 65.8784 69.2038 65.6904 68.2831 65.5085 63.9381ZM58.4895 62.6214 58.0951 63.5735 58.4791 64.5002 60.9205 63.9489 63.5539 63.9064 64.4676 63.9212 64.4737 63.5535 64.4622 62.8497 63.5539 62.8879 58.8244 62.6896ZM70.0975 62.3195 68.2835 62.6896 65.5237 62.8052 65.4924 63.5535 65.5085 63.9381 66.1875 63.9489 70.0958 64.8314 70.6168 63.5735ZM64.356 57.3127 63.6799 57.5928 64.4311 60.9199 64.4622 62.8497 65.5237 62.8052 65.6904 58.8241 65.8707 57.9402ZM14.2741 51.8058C4.2013 51.8574 0 59.5918 0 63.3277 0 67.0662 4.12054 74.1256 14.2741 74.2286 16.8123 74.2545 20.1547 73.7708 23.951 72.9946L35.4596 70.2189 34.4551 63.5737 35.5335 56.4411 32.2626 55.5149C25.122 53.4347 18.6807 51.7833 14.2741 51.8058ZM112.834 51.8058C108.427 51.7833 101.986 53.4347 94.8451 55.5149L93.1124 56.0057 94.2565 63.5737 93.1954 70.592 103.157 72.9946C106.953 73.7708 110.295 74.2545 112.834 74.2286 122.987 74.1256 127.108 67.0662 127.108 63.3277 127.108 59.5918 122.906 51.8574 112.834 51.8058ZM72.0272 35.2219 66.5835 54.4471 65.8707 57.9402 68.7831 59.1465 70.0975 62.3195 72.6605 61.7965 93.1124 56.0057 92.9123 54.6823C90.2914 46.2558 84.0435 39.4274 75.9946 36.023ZM58.038 34.9488 52.717 36.023C44.6681 39.4274 38.4202 46.2558 35.7993 54.6823L35.5335 56.4411 54.4474 61.7965 58.4895 62.6214 59.9289 59.1465 63.6799 57.5928 61.8246 49.3747C60.7433 45.1632 59.5216 40.7055 58.3762 36.3514ZM29.7912 27.4122C26.3333 27.4122 23.5303 30.2152 23.5303 33.673 23.5303 37.1308 26.3333 39.9338 29.7912 39.9338 33.249 39.9338 36.052 37.1308 36.052 33.673 36.052 30.2152 33.249 27.4122 29.7912 27.4122ZM100.933 27.4122C97.4756 27.4122 94.6726 30.2152 94.6726 33.673 94.6726 37.1308 97.4756 39.9338 100.933 39.9338 104.391 39.9338 107.194 37.1308 107.194 33.673 107.194 30.2152 104.391 27.4122 100.933 27.4122ZM65.0523 0C61.314 0 54.2544 4.12073 54.1513 14.274 54.1255 16.8124 54.6092 20.1546 55.3854 23.9509L58.038 34.9488 64.3558 33.6732 72.0272 35.2219 72.8652 32.2624C74.9454 25.1219 76.5968 18.6808 76.5743 14.274 76.5227 4.20148 68.7883 0 65.0523 0Z"
       stroke="#FFFFFF"
       stroke-width="6.875"
       stroke-miterlimit="8"
       fill="none"
       fill-rule="evenodd"
       transform="matrix(-0.656152 -0.754628 -0.754628 0.656152 1818.44 299.56)"
       id="path77" /><path
       d="M1693.84 407.467C1690.9 396.498 1687.95 385.529 1681.3 384.576 1674.64 383.622 1658.68 391.824 1653.92 401.744 1649.17 411.664 1649.93 434.747 1652.78 444.094 1655.63 453.441 1666.28 448.672 1671.03 457.829 1675.78 466.986 1674.64 494.074 1681.3 499.034 1687.95 503.994 1706.01 495.41 1710.95 487.588 1715.9 479.767 1708.86 460.881 1710.95 452.106 1713.04 443.331 1718.27 439.134 1723.5 434.937"
       stroke="#FFFFFF"
       stroke-width="6.875"
       stroke-miterlimit="8"
       fill="none"
       fill-rule="evenodd"
       id="path79" /><path
       d="M1689.17 409.219C1686.8 398.768 1684.86 390.174 1679.94 389.123 1675.02 388.071 1663.18 393.887 1659.65 402.909 1656.11 411.932 1656.44 434.353 1658.73 443.259 1661.02 452.164 1669.58 447.621 1673.4 456.345 1677.22 465.069 1676.3 490.878 1681.65 495.604 1686.99 500.329 1701.51 492.15 1705.48 484.698 1709.45 477.246 1703.8 459.253 1705.48 450.892 1707.16 442.531 1708.8 441.104 1713 437.105"
       stroke="#FFFFFF"
       stroke-width="10.3125"
       stroke-miterlimit="8"
       stroke-dasharray="10.3125 10.3125"
       fill="none"
       fill-rule="evenodd"
       id="path81" /><path
       d="M1700.47 572.282C1701.62 563.767 1708.92 553.407 1717.66 550.144 1726.39 546.88 1746.87 548.866 1752.89 552.698 1758.9 556.53 1751.17 566.322 1753.75 573.133 1756.33 579.945 1763.92 587.608 1768.36 593.569 1772.8 599.529 1776.23 606.057 1780.39 608.896 1784.54 611.734 1791.27 607.618 1793.27 610.598 1795.28 613.578 1794.71 621.667 1792.42 626.776 1790.12 631.885 1784.25 638.981 1779.53 641.251 1774.8 643.522 1769.36 644.374 1764.06 640.4 1758.76 636.427 1752.17 620.39 1747.73 617.41 1743.29 614.43 1738.42 619.255 1737.42 622.519 1736.42 625.783 1743.87 632.169 1741.72 636.994 1739.57 641.819 1731.69 651.043 1724.53 651.469 1717.37 651.895 1701.05 647.922 1698.75 639.549 1696.46 631.176 1710.35 611.166 1710.78 601.232 1711.21 591.298 1699.33 580.797 1700.47 572.282Z"
       stroke="#FFFFFF"
       stroke-width="6.875"
       stroke-miterlimit="8"
       fill="#FFFFFF"
       fill-rule="evenodd"
       fill-opacity="0.501961"
       id="path83" /><path
       d="M1855.5 257.335C1855.5 207.168 1896.17 166.5 1946.34 166.5L2309.66 166.5C2359.83 166.5 2400.5 207.168 2400.5 257.335L2400.5 620.665C2400.5 670.832 2359.83 711.5 2309.66 711.5L1946.34 711.5C1896.17 711.5 1855.5 670.832 1855.5 620.665Z"
       stroke="#FFFFFF"
       stroke-width="4.58333"
       stroke-miterlimit="8"
       fill="#659146"
       fill-rule="evenodd"
       id="path85" /><path
       d="M2021 355 2127.83 290 2238 350 2238 476.667 2134.51 540 2021 481.667 2021 355Z"
       stroke="#FFFFFF"
       stroke-width="13.75"
       stroke-miterlimit="8"
       fill="none"
       fill-rule="evenodd"
       id="path87" /><g
       aria-label="G"
       transform="matrix(1 0 0 1 2083.21 464)"
       id="text89"
       style="font-size:147px;font-family:Calibri, Calibri_MSFontService, sans-serif;fill:#ffffff"><path
         d="m 82.113281,-80.24707 q 0,1.363769 -0.143554,2.440429 -0.143555,1.004883 -0.430665,1.722657 -0.287109,0.645996 -0.717773,0.933105 -0.430664,0.287109 -0.933105,0.287109 -0.861329,0 -2.871094,-1.363769 -2.009766,-1.36377 -5.383301,-3.014648 -3.373535,-1.650879 -8.11084,-3.014649 -4.665527,-1.363769 -11.125488,-1.363769 -7.680176,0 -13.78125,2.799316 -6.101074,2.799316 -10.335938,7.751953 -4.234863,4.952637 -6.531738,11.771484 -2.225098,6.818848 -2.225098,14.786133 0,8.900391 2.44043,15.791016 2.512207,6.890625 6.890625,11.62793 4.378418,4.737304 10.407715,7.177734 6.101074,2.4404296 13.350586,2.4404296 4.306641,0 8.685059,-1.0048826 4.450195,-1.07666 8.254394,-3.158203 V -40.697754 H 48.019043 q -1.220215,0 -1.866211,-1.220215 -0.574219,-1.220215 -0.574219,-3.804199 0,-1.363769 0.143555,-2.296875 0.143555,-1.004883 0.430664,-1.579102 0.358887,-0.645996 0.789551,-0.933105 0.430664,-0.287109 1.07666,-0.287109 h 29.500488 q 0.789551,0 1.579102,0.287109 0.789551,0.287109 1.435547,0.861328 0.645996,0.574219 1.004882,1.579102 0.358887,1.004883 0.358887,2.296875 v 35.38623 q 0,1.8662111 -0.645996,3.2299806 -0.645996,1.3637696 -2.727539,2.4404297 -2.081543,1.0048828 -5.383301,2.2250977 -3.301758,1.2202148 -6.818847,2.08154294 -3.51709,0.86132812 -7.105957,1.29199219 -3.588868,0.43066407 -7.105957,0.43066407 -10.766602,0 -19.236329,-3.3017578 -8.469726,-3.3735352 -14.355468,-9.5463864 -5.813965,-6.172852 -8.9003909,-14.786133 -3.0864258,-8.613281 -3.0864258,-19.236328 0,-11.053711 3.3017578,-20.025879 3.3735349,-8.972168 9.4028319,-15.288574 6.101074,-6.316407 14.570801,-9.761719 8.541504,-3.51709 18.877441,-3.51709 5.311524,0 9.977051,0.933105 4.665527,0.933106 8.254395,2.225098 3.660644,1.220215 6.101074,2.727539 2.512207,1.435547 3.445312,2.368653 0.933106,0.933105 1.291993,2.15332 0.358886,1.220215 0.358886,3.51709 z"
         style="font-size:147px;font-family:Calibri, Calibri_MSFontService, sans-serif;fill:#ffffff"
         id="path115" /></g><g
       aria-label="graphium"
       transform="matrix(1 0 0 1 1936.56 645)"
       id="text91"
       style="font-size:92px;font-family:Arial, Arial_MSFontService, sans-serif;fill:#ffffff"><path
         d="m 4.5820312,3.953125 7.8613278,1.1679687 q 0.494141,3.6386719 2.740235,5.3007813 3.009765,2.246094 8.220703,2.246094 5.615234,0 8.669922,-2.246094 Q 35.128906,8.1757813 36.207031,4.1328125 36.835937,1.6621094 36.791016,-6.2441406 31.490234,0 23.583984,0 13.746094,0 8.3554688,-7.0976562 2.9648438,-14.195313 2.9648438,-24.123047 q 0,-6.828125 2.4707031,-12.578125 2.4707031,-5.794922 7.1425781,-8.939453 4.716797,-3.144531 11.050781,-3.144531 8.445313,0 13.925781,6.828125 v -5.75 h 7.457032 V -6.46875 q 0,11.140625 -2.291016,15.7675781 -2.246094,4.6718749 -7.1875,7.3671879 -4.896484,2.695312 -12.083984,2.695312 -8.535156,0 -13.7910159,-3.863281 Q 4.4023437,11.679688 4.5820312,3.953125 Z m 6.6933598,-28.660156 q 0,9.388672 3.728515,13.701172 3.728516,4.3124996 9.34375,4.3124996 5.570313,0 9.34375,-4.2675786 3.773438,-4.3125 3.773438,-13.476562 0,-8.759766 -3.908203,-13.207031 -3.863282,-4.447266 -9.34375,-4.447266 -5.390625,0 -9.164063,4.402344 -3.773437,4.357422 -3.773437,12.982422 z"
         style="font-size:92px;font-family:Arial, Arial_MSFontService, sans-serif;fill:#ffffff"
         id="path136" /><path
         d="m 57.140625,0 v -47.707031 h 7.277344 v 7.232422 q 2.785156,-5.076172 5.121093,-6.69336 2.38086,-1.617187 5.210938,-1.617187 4.087891,0 8.310547,2.605469 l -2.785156,7.501953 q -2.964844,-1.751953 -5.929688,-1.751953 -2.650391,0 -4.761719,1.617187 -2.111328,1.572266 -3.009765,4.402344 -1.347657,4.3125 -1.347657,9.433594 V 0 Z"
         style="font-size:92px;font-family:Arial, Arial_MSFontService, sans-serif;fill:#ffffff"
         id="path138" /><path
         d="m 118.99805,-5.8847656 q -4.49219,3.8183593 -8.66992,5.39062497 -4.13282,1.57226563 -8.89454,1.57226563 -7.861324,0 -12.083981,-3.8183594 -4.222656,-3.8632812 -4.222656,-9.8378906 0,-3.503906 1.572266,-6.378906 1.617187,-2.919922 4.177734,-4.671875 2.605469,-1.751953 5.839844,-2.650391 2.380859,-0.628906 7.187503,-1.21289 9.79297,-1.167969 14.41992,-2.785157 0.0449,-1.662109 0.0449,-2.111328 0,-4.941406 -2.29101,-6.96289 -3.09961,-2.740235 -9.20899,-2.740235 -5.70508,0 -8.445312,2.021485 -2.695312,1.976562 -3.998047,7.052734 l -7.90625,-1.078125 q 1.078125,-5.076172 3.548828,-8.175781 2.470703,-3.144532 7.142578,-4.806641 4.671873,-1.707031 10.826173,-1.707031 6.10937,0 9.92773,1.4375 3.81836,1.4375 5.61524,3.638672 1.79687,2.15625 2.51562,5.480468 0.4043,2.066407 0.4043,7.457032 v 10.78125 q 0,11.2753902 0.49414,14.2851559 Q 127.5332,-2.7402344 129.06055,0 h -8.44532 q -1.25781,-2.515625 -1.61718,-5.8847656 z m -0.67383,-18.0585934 q -4.40234,1.796875 -13.20703,3.054687 -4.98633,0.71875 -7.052737,1.617188 -2.066406,0.898437 -3.189453,2.65039 -1.123047,1.707031 -1.123047,3.81836 0,3.2343746 2.425781,5.3906246 2.470703,2.15625 7.187496,2.15625 4.67188,0 8.31055,-2.0214843 3.63867,-2.0664063 5.3457,-5.6152343 1.30274,-2.740235 1.30274,-8.085938 z"
         style="font-size:92px;font-family:Arial, Arial_MSFontService, sans-serif;fill:#ffffff"
         id="path140" /><path
         d="m 139.0332,18.283203 v -65.990234 h 7.36719 v 6.199219 q 2.60547,-3.638672 5.88477,-5.435547 3.27929,-1.841797 7.95117,-1.841797 6.10937,0 10.78125,3.144531 4.67187,3.144531 7.05273,8.894531 2.38086,5.705078 2.38086,12.533203 0,7.322266 -2.65039,13.207032 -2.60547,5.8398434 -7.63672,8.9843746 -4.98633,3.0996094 -10.51172,3.0996094 -4.04297,0 -7.27734,-1.70703125 -3.18945,-1.70703125 -5.25586,-4.31249995 V 18.283203 Z m 7.32227,-41.867187 q 0,9.208984 3.72851,13.6113277 3.72852,4.4023438 9.0293,4.4023438 5.39063,0 9.20899,-4.5371095 3.86328,-4.582031 3.86328,-14.15039 0,-9.119141 -3.77344,-13.65625 -3.72852,-4.53711 -8.93945,-4.53711 -5.16602,0 -9.16407,4.851563 -3.95312,4.80664 -3.95312,14.015625 z"
         style="font-size:92px;font-family:Arial, Arial_MSFontService, sans-serif;fill:#ffffff"
         id="path142" /><path
         d="m 190.19922,0 v -65.855469 h 8.08594 v 23.628907 q 5.66015,-6.558594 14.28515,-6.558594 5.30078,0 9.20899,2.111328 3.9082,2.066406 5.57031,5.75 1.70703,3.683594 1.70703,10.691406 V 0 h -8.08594 v -30.232422 q 0,-6.064453 -2.65039,-8.804687 -2.60547,-2.785157 -7.41211,-2.785157 -3.59375,0 -6.7832,1.886719 -3.14453,1.841797 -4.49219,5.03125 -1.34765,3.189453 -1.34765,8.804688 V 0 Z"
         style="font-size:92px;font-family:Arial, Arial_MSFontService, sans-serif;fill:#ffffff"
         id="path144" /><path
         d="m 241.41016,-56.556641 v -9.298828 h 8.08593 v 9.298828 z m 0,56.556641 v -47.707031 h 8.08593 V 0 Z"
         style="font-size:92px;font-family:Arial, Arial_MSFontService, sans-serif;fill:#ffffff"
         id="path146" /><path
         d="M 293.07031,0 V -7.0078125 Q 287.5,1.078125 277.93164,1.078125 q -4.22266,0 -7.90625,-1.6171875 -3.63867,-1.6171875 -5.43555,-4.0429687 -1.75195,-2.4707032 -2.4707,-6.0195318 -0.49414,-2.380859 -0.49414,-7.546874 v -29.558594 h 8.08594 v 26.458984 q 0,6.333984 0.49414,8.535156 0.76367,3.1894535 3.23437,5.0312504 2.47071,1.796875 6.10938,1.796875 3.63867,0 6.82812,-1.8417969 3.18946,-1.8867188 4.49219,-5.0761715 1.34766,-3.234375 1.34766,-9.34375 v -25.560547 h 8.08593 V 0 Z"
         style="font-size:92px;font-family:Arial, Arial_MSFontService, sans-serif;fill:#ffffff"
         id="path148" /><path
         d="m 312.9707,0 v -47.707031 h 7.23242 v 6.693359 q 2.2461,-3.503906 5.97461,-5.615234 3.72852,-2.15625 8.49024,-2.15625 5.30078,0 8.66992,2.201172 3.41406,2.201172 4.80664,6.154297 5.66016,-8.355469 14.73438,-8.355469 7.09765,0 10.91601,3.953125 3.81836,3.908203 3.81836,12.083984 V 0 h -8.04101 v -30.052734 q 0,-4.851563 -0.8086,-6.962891 -0.76367,-2.15625 -2.83008,-3.458984 -2.0664,-1.302735 -4.85156,-1.302735 -5.03125,0 -8.35547,3.369141 -3.32422,3.324219 -3.32422,10.691406 V 0 h -8.08593 v -30.996094 q 0,-5.390625 -1.97657,-8.085937 -1.97656,-2.695313 -6.46875,-2.695313 -3.41406,0 -6.33398,1.796875 -2.875,1.796875 -4.17774,5.25586 -1.30273,3.458984 -1.30273,9.972656 V 0 Z"
         style="font-size:92px;font-family:Arial, Arial_MSFontService, sans-serif;fill:#ffffff"
         id="path150" /></g><path
       d="M2400.27 435.148 2423.08 437.312 2422.54 443.016 2399.73 440.852ZM2440.2 438.935 2463.01 441.099 2462.47 446.803 2439.65 444.639ZM2480.12 442.722 2502.93 444.886 2502.39 450.59 2479.58 448.426ZM2520.05 446.509 2542.86 448.673 2542.32 454.377 2519.5 452.213ZM2559.97 450.297 2582.78 452.461 2582.24 458.164 2559.43 456ZM2599.9 454.084 2622.71 456.248 2622.17 461.951 2599.35 459.787ZM2639.82 457.871 2662.63 460.035 2662.09 465.738 2639.28 463.574ZM2679.75 461.658 2702.56 463.822 2702.02 469.525 2679.2 467.361ZM2719.67 465.445 2742.48 467.609 2741.94 473.312 2719.13 471.148ZM2759.6 469.232 2782.41 471.396 2781.87 477.1 2759.05 474.936ZM2770.78 454.891 2789.77 474.971 2767.34 491.123C2766.06 492.048 2764.27 491.757 2763.34 490.473 2762.42 489.19 2762.71 487.4 2763.99 486.475L2783.76 472.236 2783.35 476.528 2766.62 458.827C2765.53 457.678 2765.58 455.865 2766.73 454.778 2767.88 453.691 2769.69 453.742 2770.78 454.891Z"
       fill="#FFFFFF"
       id="path93" /><path
       d="M2406.98 482.307 2411.96 484.11 2411.88 484.085 2417.51 485.951 2417.45 485.933 2423.68 487.858 2423.64 487.845 2428.6 489.292 2427 494.792 2422.01 493.339 2415.73 491.398 2410.04 489.51 2405.02 487.694ZM2445.11 493.809 2445.51 493.915 2445.49 493.909 2453.77 496.029 2453.74 496.024 2462.44 498.182 2462.42 498.178 2467.28 499.354 2465.94 504.922 2461.07 503.745 2452.35 501.582 2444.06 499.456 2443.64 499.346ZM2483.98 503.298 2500.59 507.107 2500.57 507.103 2506.3 508.38 2505.06 513.972 2499.32 512.694 2482.7 508.882ZM2523.07 512.104 2542.44 516.326 2542.43 516.324 2545.45 516.971 2544.25 522.573 2541.23 521.925 2521.85 517.701ZM2562.26 520.572 2584.67 525.374 2583.47 530.976 2561.06 526.174ZM2601.48 528.964 2606.93 530.13 2623.89 533.777 2622.68 539.378 2605.74 535.733 2600.28 534.567ZM2640.69 537.434 2647.57 538.937 2663.07 542.406 2661.82 547.997 2646.32 544.529 2646.34 544.532 2639.47 543.031ZM2679.85 546.261 2683.52 547.121 2691.5 549.041 2698.99 550.899 2698.98 550.895 2702.15 551.664 2700.8 557.232 2697.62 556.461 2690.13 554.604 2690.15 554.609 2682.19 552.694 2682.21 552.698 2678.55 551.839ZM2718.82 555.594 2726.81 557.37 2726.75 557.359 2739.98 560.035 2739.93 560.024 2741.15 560.247 2740.12 565.883 2738.87 565.656 2725.59 562.969 2717.58 561.186ZM2758.02 563.219 2765.05 564.363 2765 564.355 2777.02 566.08 2776.95 566.07 2780.57 566.491 2779.9 572.182 2776.25 571.757 2764.16 570.022 2757.1 568.874ZM2797.64 568.477 2800.03 568.755 2799.93 568.746 2820.38 570.454 2819.9 576.163 2799.41 574.451 2796.98 574.168ZM2837.46 571.466 2843.08 571.785 2843.02 571.783 2860.3 572.437 2860.08 578.162 2842.78 577.507 2837.13 577.186ZM2877.45 572.951 2879.73 573.015 2879.57 578.742 2877.29 578.678ZM2863.72 557.227 2884 576 2862.7 593.608C2861.48 594.616 2859.67 594.445 2858.66 593.225 2857.66 592.006 2857.83 590.2 2859.05 589.192L2877.82 573.67 2877.7 577.98 2859.82 561.432C2858.66 560.357 2858.59 558.544 2859.67 557.383 2860.74 556.222 2862.56 556.152 2863.72 557.227Z"
       fill="#FFFFFF"
       id="path95" /><path
       d="M5.22505-3.43749 32.7251-3.43744 32.725 3.43756 5.22504 3.43751ZM53.3501-3.43741 80.8501-3.43736 80.85 3.43764 53.35 3.43759ZM101.475-3.43732 128.975-3.43727 128.975 3.43773 101.475 3.43768ZM149.6-3.43724 177.1-3.43719 177.1 3.43781 149.6 3.43776ZM197.725-3.43715 204.879-3.43714 204.879 3.43786 197.725 3.43785ZM21.2947 18.6287 0.00483927 3.14798e-07 21.2948-18.6286C22.7235-19.8788 24.8952-19.734 26.1453-18.3052 27.3955-16.8765 27.2507-14.7048 25.822-13.4546L7.48861 2.587 7.48861-2.58697 25.8219 13.4547C27.2507 14.7049 27.3954 16.8766 26.1453 18.3053 24.8951 19.7341 22.7234 19.8788 21.2947 18.6287Z"
       fill="#FFFFFF"
       fill-opacity="0.501961"
       transform="matrix(-1 0 0 1 1620.38 434.5)"
       id="path97" /><path
       d="M1672.35 595.38 1645.92 587.766 1647.83 581.159 1674.25 588.774ZM1626.1 582.055 1599.68 574.44 1601.58 567.834 1628.01 575.448ZM1579.86 568.729 1553.44 561.114 1555.34 554.508 1581.76 562.123ZM1533.62 555.403 1507.19 547.788 1509.1 541.182 1535.52 548.797ZM1487.37 542.077 1460.95 534.462 1462.85 527.856 1489.28 535.471ZM1441.13 528.751 1414.71 521.136 1416.61 514.53 1443.03 522.145ZM1663.01 569.727 1678.31 593.522 1652.7 605.527C1650.98 606.333 1648.93 605.593 1648.13 603.873 1647.32 602.154 1648.06 600.108 1649.78 599.302L1671.84 588.964 1670.4 593.936 1657.23 573.445C1656.2 571.848 1656.67 569.721 1658.26 568.694 1659.86 567.668 1661.99 568.13 1663.01 569.727Z"
       fill="#FFFFFF"
       fill-opacity="0.501961"
       id="path99" /><path
       d="M6.08559-1.44277 31.9265 7.96449 29.5747 14.4247 3.73378 5.01746ZM51.3072 15.0199 77.1481 24.4272 74.7963 30.8874 48.9554 21.4802ZM13.6375 24.7893 0.0045471 0.00165503 26.3825-10.2202C28.1528-10.9062 30.1439-10.0273 30.8299-8.25707 31.5159-6.48686 30.6369-4.49572 28.8667-3.80973L6.15186 4.99263 7.92178 0.130811 19.6615 21.4762C20.5764 23.1397 19.9695 25.2299 18.3061 26.1448 16.6426 27.0597 14.5524 26.4528 13.6375 24.7893Z"
       fill="#FFFFFF"
       fill-opacity="0.501961"
       transform="matrix(-1 0 0 1 1855.9 545.5)"
       id="path101" /><path
       d="M5.22497-3.43748 32.725-3.4374 32.7249 3.4376 5.22494 3.43752ZM53.35-3.43734 80.85-3.43725 80.8499 3.43775 53.3499 3.43766ZM101.475-3.43719 117.989-3.43714 117.989 3.43786 101.475 3.43781ZM21.2947 18.6287 0.00483927 6.41642e-08 21.2948-18.6286C22.7235-19.8787 24.8952-19.734 26.1454-18.3052 27.3955-16.8764 27.2507-14.7048 25.822-13.4546L7.4886 2.58701 7.48862-2.58696 25.8219 13.4548C27.2506 14.7049 27.3954 16.8766 26.1453 18.3054 24.8951 19.7341 22.7234 19.8789 21.2947 18.6287Z"
       fill="#FFFFFF"
       fill-opacity="0.501961"
       transform="matrix(-1 0 0 1 1855.49 438.5)"
       id="path103" /><path
       d="M1849.57 333.129 1823.77 323.625 1826.15 317.173 1851.95 326.678ZM1804.42 316.496 1778.61 306.992 1780.99 300.54 1806.79 310.045ZM1842.12 306.869 1855.66 331.708 1829.24 341.83C1827.47 342.51 1825.48 341.623 1824.8 339.85 1824.13 338.078 1825.01 336.09 1826.78 335.41L1849.53 326.694 1847.74 331.549 1836.08 310.159C1835.18 308.492 1835.79 306.405 1837.46 305.496 1839.12 304.587 1841.21 305.202 1842.12 306.869Z"
       fill="#FFFFFF"
       fill-opacity="0.501961"
       id="path105" /><path
       d="M2064.36 273.998C2056.75 278.45 2054.35 287.109 2052.79 295.493 2044.71 292.754 2035.98 290.605 2028.38 295.057 2019.92 300.008 2017.07 310.879 2022.02 319.338 2026.98 327.796 2037.85 330.64 2046.31 325.689 2053.89 321.251 2056.19 312.852 2057.81 304.084 2066.18 306.946 2074.68 309.082 2082.29 304.63 2090.74 299.679 2093.59 288.808 2088.64 280.349 2083.69 271.891 2072.82 269.047 2064.36 273.998ZM2050.69 302.732C2049.06 311.242 2047.24 316.693 2042.62 319.396 2037.64 322.313 2031.23 320.637 2028.32 315.654 2025.4 310.671 2027.08 304.267 2032.06 301.35 2036.72 298.625 2042.77 299.802 2050.45 302.396L2050.69 302.487ZM2078.6 298.337C2073.98 301.044 2068.12 299.898 2060.17 297.179L2059.91 297.09 2059.95 296.834C2061.44 288.876 2063.42 282.993 2068.04 280.291 2073.02 277.374 2079.43 279.05 2082.34 284.033 2085.26 289.016 2083.59 295.42 2078.6 298.337Z"
       fill="#FFFFFF"
       fill-rule="evenodd"
       id="path107" /></g></svg>
