<?xml version="1.0" encoding="UTF-8" standalone="no"?>
<svg
   width="545"
   height="545"
   xml:space="preserve"
   overflow="hidden"
   version="1.1"
   id="svg14"
   sodipodi:docname="logo-large-green.svg"
   inkscape:version="1.1 (c68e22c387, 2021-05-23)"
   xmlns:inkscape="http://www.inkscape.org/namespaces/inkscape"
   xmlns:sodipodi="http://sodipodi.sourceforge.net/DTD/sodipodi-0.dtd"
   xmlns="http://www.w3.org/2000/svg"
   xmlns:svg="http://www.w3.org/2000/svg"><defs
     id="defs18" /><sodipodi:namedview
     id="namedview16"
     pagecolor="#ffffff"
     bordercolor="#666666"
     borderopacity="1.0"
     inkscape:pageshadow="2"
     inkscape:pageopacity="0.0"
     inkscape:pagecheckerboard="0"
     showgrid="false"
     inkscape:zoom="0.76164875"
     inkscape:cx="583.60235"
     inkscape:cy="386.66117"
     inkscape:window-width="1920"
     inkscape:window-height="1009"
     inkscape:window-x="3832"
     inkscape:window-y="-8"
     inkscape:window-maximized="1"
     inkscape:current-layer="g12" /><g
     transform="translate(-2591.5,-1921.5)"
     id="g12"><path
       d="m 2591.5,2012.34 c 0,-50.17 40.67,-90.84 90.84,-90.84 h 363.32 c 50.17,0 90.84,40.67 90.84,90.84 v 363.32 c 0,50.17 -40.67,90.84 -90.84,90.84 h -363.32 c -50.17,0 -90.84,-40.67 -90.84,-90.84 z"
       stroke="#ffffff"
       stroke-width="4.58333"
       stroke-miterlimit="8"
       fill="#659146"
       fill-rule="evenodd"
       id="path2"
       style="stroke:none" /><g
       aria-label="graphium"
       transform="translate(2672.19,2400)"
       id="text4"
       style="font-size:92px;font-family:Arial, Arial_MSFontService, sans-serif;fill:#ffffff"><path
         d="m 4.5820312,3.953125 7.8613278,1.1679687 q 0.494141,3.6386719 2.740235,5.3007813 3.009765,2.246094 8.220703,2.246094 5.615234,0 8.669922,-2.246094 Q 35.128906,8.1757813 36.207031,4.1328125 36.835937,1.6621094 36.791016,-6.2441406 31.490234,0 23.583984,0 13.746094,0 8.3554688,-7.0976562 2.9648438,-14.195313 2.9648438,-24.123047 q 0,-6.828125 2.4707031,-12.578125 2.4707031,-5.794922 7.1425781,-8.939453 4.716797,-3.144531 11.050781,-3.144531 8.445313,0 13.925781,6.828125 v -5.75 h 7.457032 V -6.46875 q 0,11.140625 -2.291016,15.7675781 -2.246094,4.6718749 -7.1875,7.3671879 -4.896484,2.695312 -12.083984,2.695312 -8.535156,0 -13.7910159,-3.863281 Q 4.4023437,11.679688 4.5820312,3.953125 Z m 6.6933598,-28.660156 q 0,9.388672 3.728515,13.701172 3.728516,4.3124996 9.34375,4.3124996 5.570313,0 9.34375,-4.2675786 3.773438,-4.3125 3.773438,-13.476562 0,-8.759766 -3.908203,-13.207031 -3.863282,-4.447266 -9.34375,-4.447266 -5.390625,0 -9.164063,4.402344 -3.773437,4.357422 -3.773437,12.982422 z"
         style="font-size:92px;font-family:Arial, Arial_MSFontService, sans-serif;fill:#ffffff"
         id="path1350" /><path
         d="m 57.140625,0 v -47.707031 h 7.277344 v 7.232422 q 2.785156,-5.076172 5.121093,-6.69336 2.38086,-1.617187 5.210938,-1.617187 4.087891,0 8.310547,2.605469 l -2.785156,7.501953 q -2.964844,-1.751953 -5.929688,-1.751953 -2.650391,0 -4.761719,1.617187 -2.111328,1.572266 -3.009765,4.402344 -1.347657,4.3125 -1.347657,9.433594 V 0 Z"
         style="font-size:92px;font-family:Arial, Arial_MSFontService, sans-serif;fill:#ffffff"
         id="path1352" /><path
         d="m 118.99805,-5.8847656 q -4.49219,3.8183593 -8.66992,5.39062497 -4.13282,1.57226563 -8.89454,1.57226563 -7.861324,0 -12.083981,-3.8183594 -4.222656,-3.8632812 -4.222656,-9.8378906 0,-3.503906 1.572266,-6.378906 1.617187,-2.919922 4.177734,-4.671875 2.605469,-1.751953 5.839844,-2.650391 2.380859,-0.628906 7.187503,-1.21289 9.79297,-1.167969 14.41992,-2.785157 0.0449,-1.662109 0.0449,-2.111328 0,-4.941406 -2.29101,-6.96289 -3.09961,-2.740235 -9.20899,-2.740235 -5.70508,0 -8.445312,2.021485 -2.695312,1.976562 -3.998047,7.052734 l -7.90625,-1.078125 q 1.078125,-5.076172 3.548828,-8.175781 2.470703,-3.144532 7.142578,-4.806641 4.671873,-1.707031 10.826173,-1.707031 6.10937,0 9.92773,1.4375 3.81836,1.4375 5.61524,3.638672 1.79687,2.15625 2.51562,5.480468 0.4043,2.066407 0.4043,7.457032 v 10.78125 q 0,11.2753902 0.49414,14.2851559 Q 127.5332,-2.7402344 129.06055,0 h -8.44532 q -1.25781,-2.515625 -1.61718,-5.8847656 z m -0.67383,-18.0585934 q -4.40234,1.796875 -13.20703,3.054687 -4.98633,0.71875 -7.052737,1.617188 -2.066406,0.898437 -3.189453,2.65039 -1.123047,1.707031 -1.123047,3.81836 0,3.2343746 2.425781,5.3906246 2.470703,2.15625 7.187496,2.15625 4.67188,0 8.31055,-2.0214843 3.63867,-2.0664063 5.3457,-5.6152343 1.30274,-2.740235 1.30274,-8.085938 z"
         style="font-size:92px;font-family:Arial, Arial_MSFontService, sans-serif;fill:#ffffff"
         id="path1354" /><path
         d="m 139.0332,18.283203 v -65.990234 h 7.36719 v 6.199219 q 2.60547,-3.638672 5.88477,-5.435547 3.27929,-1.841797 7.95117,-1.841797 6.10937,0 10.78125,3.144531 4.67187,3.144531 7.05273,8.894531 2.38086,5.705078 2.38086,12.533203 0,7.322266 -2.65039,13.207032 -2.60547,5.8398434 -7.63672,8.9843746 -4.98633,3.0996094 -10.51172,3.0996094 -4.04297,0 -7.27734,-1.70703125 -3.18945,-1.70703125 -5.25586,-4.31249995 V 18.283203 Z m 7.32227,-41.867187 q 0,9.208984 3.72851,13.6113277 3.72852,4.4023438 9.0293,4.4023438 5.39063,0 9.20899,-4.5371095 3.86328,-4.582031 3.86328,-14.15039 0,-9.119141 -3.77344,-13.65625 -3.72852,-4.53711 -8.93945,-4.53711 -5.16602,0 -9.16407,4.851563 -3.95312,4.80664 -3.95312,14.015625 z"
         style="font-size:92px;font-family:Arial, Arial_MSFontService, sans-serif;fill:#ffffff"
         id="path1356" /><path
         d="m 190.19922,0 v -65.855469 h 8.08594 v 23.628907 q 5.66015,-6.558594 14.28515,-6.558594 5.30078,0 9.20899,2.111328 3.9082,2.066406 5.57031,5.75 1.70703,3.683594 1.70703,10.691406 V 0 h -8.08594 v -30.232422 q 0,-6.064453 -2.65039,-8.804687 -2.60547,-2.785157 -7.41211,-2.785157 -3.59375,0 -6.7832,1.886719 -3.14453,1.841797 -4.49219,5.03125 -1.34765,3.189453 -1.34765,8.804688 V 0 Z"
         style="font-size:92px;font-family:Arial, Arial_MSFontService, sans-serif;fill:#ffffff"
         id="path1358" /><path
         d="m 241.41016,-56.556641 v -9.298828 h 8.08593 v 9.298828 z m 0,56.556641 v -47.707031 h 8.08593 V 0 Z"
         style="font-size:92px;font-family:Arial, Arial_MSFontService, sans-serif;fill:#ffffff"
         id="path1360" /><path
         d="M 293.07031,0 V -7.0078125 Q 287.5,1.078125 277.93164,1.078125 q -4.22266,0 -7.90625,-1.6171875 -3.63867,-1.6171875 -5.43555,-4.0429687 -1.75195,-2.4707032 -2.4707,-6.0195318 -0.49414,-2.380859 -0.49414,-7.546874 v -29.558594 h 8.08594 v 26.458984 q 0,6.333984 0.49414,8.535156 0.76367,3.1894535 3.23437,5.0312504 2.47071,1.796875 6.10938,1.796875 3.63867,0 6.82812,-1.8417969 3.18946,-1.8867188 4.49219,-5.0761715 1.34766,-3.234375 1.34766,-9.34375 v -25.560547 h 8.08593 V 0 Z"
         style="font-size:92px;font-family:Arial, Arial_MSFontService, sans-serif;fill:#ffffff"
         id="path1362" /><path
         d="m 312.9707,0 v -47.707031 h 7.23242 v 6.693359 q 2.2461,-3.503906 5.97461,-5.615234 3.72852,-2.15625 8.49024,-2.15625 5.30078,0 8.66992,2.201172 3.41406,2.201172 4.80664,6.154297 5.66016,-8.355469 14.73438,-8.355469 7.09765,0 10.91601,3.953125 3.81836,3.908203 3.81836,12.083984 V 0 h -8.04101 v -30.052734 q 0,-4.851563 -0.8086,-6.962891 -0.76367,-2.15625 -2.83008,-3.458984 -2.0664,-1.302735 -4.85156,-1.302735 -5.03125,0 -8.35547,3.369141 -3.32422,3.324219 -3.32422,10.691406 V 0 h -8.08593 v -30.996094 q 0,-5.390625 -1.97657,-8.085937 -1.97656,-2.695313 -6.46875,-2.695313 -3.41406,0 -6.33398,1.796875 -2.875,1.796875 -4.17774,5.25586 -1.30273,3.458984 -1.30273,9.972656 V 0 Z"
         style="font-size:92px;font-family:Arial, Arial_MSFontService, sans-serif;fill:#ffffff"
         id="path1364" /></g><path
       d="m 2757,2107 106.83,-65 110.17,60 v 126.67 L 2870.51,2292 2757,2233.67 Z"
       stroke="#ffffff"
       stroke-width="13.75"
       stroke-miterlimit="8"
       fill="none"
       fill-rule="evenodd"
       id="path6" /><g
       aria-label="G"
       transform="translate(2819.15,2216)"
       id="text8"
       style="font-size:147px;font-family:Calibri, Calibri_MSFontService, sans-serif;fill:#ffffff"><path
         d="m 82.113281,-80.24707 q 0,1.363769 -0.143554,2.440429 -0.143555,1.004883 -0.430665,1.722657 -0.287109,0.645996 -0.717773,0.933105 -0.430664,0.287109 -0.933105,0.287109 -0.861329,0 -2.871094,-1.363769 -2.009766,-1.36377 -5.383301,-3.014648 -3.373535,-1.650879 -8.11084,-3.014649 -4.665527,-1.363769 -11.125488,-1.363769 -7.680176,0 -13.78125,2.799316 -6.101074,2.799316 -10.335938,7.751953 -4.234863,4.952637 -6.531738,11.771484 -2.225098,6.818848 -2.225098,14.786133 0,8.900391 2.44043,15.791016 2.512207,6.890625 6.890625,11.62793 4.378418,4.737304 10.407715,7.177734 6.101074,2.4404296 13.350586,2.4404296 4.306641,0 8.685059,-1.0048826 4.450195,-1.07666 8.254394,-3.158203 V -40.697754 H 48.019043 q -1.220215,0 -1.866211,-1.220215 -0.574219,-1.220215 -0.574219,-3.804199 0,-1.363769 0.143555,-2.296875 0.143555,-1.004883 0.430664,-1.579102 0.358887,-0.645996 0.789551,-0.933105 0.430664,-0.287109 1.07666,-0.287109 h 29.500488 q 0.789551,0 1.579102,0.287109 0.789551,0.287109 1.435547,0.861328 0.645996,0.574219 1.004882,1.579102 0.358887,1.004883 0.358887,2.296875 v 35.38623 q 0,1.8662111 -0.645996,3.2299806 -0.645996,1.3637696 -2.727539,2.4404297 -2.081543,1.0048828 -5.383301,2.2250977 -3.301758,1.2202148 -6.818847,2.08154294 -3.51709,0.86132812 -7.105957,1.29199219 -3.588868,0.43066407 -7.105957,0.43066407 -10.766602,0 -19.236329,-3.3017578 -8.469726,-3.3735352 -14.355468,-9.5463864 -5.813965,-6.172852 -8.9003909,-14.786133 -3.0864258,-8.613281 -3.0864258,-19.236328 0,-11.053711 3.3017578,-20.025879 3.3735349,-8.972168 9.4028319,-15.288574 6.101074,-6.316407 14.570801,-9.761719 8.541504,-3.51709 18.877441,-3.51709 5.311524,0 9.977051,0.933105 4.665527,0.933106 8.254395,2.225098 3.660644,1.220215 6.101074,2.727539 2.512207,1.435547 3.445312,2.368653 0.933106,0.933105 1.291993,2.15332 0.358886,1.220215 0.358886,3.51709 z"
         style="font-size:147px;font-family:Calibri, Calibri_MSFontService, sans-serif;fill:#ffffff"
         id="path20" /></g><path
       d="m 2800.3,2026.42 c -7.61,4.45 -10,13.11 -11.57,21.5 -8.08,-2.74 -16.8,-4.89 -24.41,-0.44 -8.46,4.95 -11.3,15.82 -6.35,24.28 4.95,8.46 15.82,11.3 24.28,6.35 7.58,-4.43 9.88,-12.83 11.51,-21.6 8.37,2.86 16.86,5 24.47,0.54 8.46,-4.95 11.3,-15.82 6.35,-24.28 -4.95,-8.46 -15.82,-11.3 -24.28,-6.35 z m -13.67,28.74 c -1.62,8.51 -3.45,13.96 -8.06,16.66 -4.99,2.92 -11.39,1.24 -14.31,-3.74 -2.92,-4.98 -1.24,-11.39 3.74,-14.31 4.66,-2.72 10.71,-1.54 18.39,1.05 l 0.24,0.09 z m 27.92,-4.4 c -4.63,2.71 -10.49,1.56 -18.43,-1.16 l -0.27,-0.09 0.04,-0.25 c 1.49,-7.96 3.48,-13.84 8.09,-16.54 4.99,-2.92 11.39,-1.25 14.31,3.74 2.91,4.98 1.24,11.38 -3.74,14.3 z"
       fill="#ffffff"
       fill-rule="evenodd"
       id="path10" /></g></svg>
