<?xml version="1.0" encoding="UTF-8" standalone="no"?>
<svg
   width="774.5"
   height="767.5"
   xml:space="preserve"
   overflow="hidden"
   version="1.1"
   id="svg26"
   sodipodi:docname="logo.svg"
   inkscape:version="1.2.2 (b0a8486541, 2022-12-01)"
   xmlns:inkscape="http://www.inkscape.org/namespaces/inkscape"
   xmlns:sodipodi="http://sodipodi.sourceforge.net/DTD/sodipodi-0.dtd"
   xmlns="http://www.w3.org/2000/svg"
   xmlns:svg="http://www.w3.org/2000/svg"><sodipodi:namedview
     id="namedview28"
     pagecolor="#ffffff"
     bordercolor="#666666"
     borderopacity="1.0"
     inkscape:showpageshadow="2"
     inkscape:pageopacity="0.0"
     inkscape:pagecheckerboard="0"
     inkscape:deskcolor="#d1d1d1"
     showgrid="false"
     inkscape:zoom="1.1102703"
     inkscape:cx="387.74343"
     inkscape:cy="408.4591"
     inkscape:window-width="2451"
     inkscape:window-height="1724"
     inkscape:window-x="3385"
     inkscape:window-y="292"
     inkscape:window-maximized="0"
     inkscape:current-layer="svg26" /><defs
     id="defs12"><clipPath
       id="clip0"><rect
         x="587"
         y="1404"
         width="961"
         height="925"
         id="rect2" /></clipPath><linearGradient
       x1="904.89301"
       y1="1396.24"
       x2="1230.11"
       y2="2289.76"
       gradientUnits="userSpaceOnUse"
       spreadMethod="reflect"
       id="fill1"><stop
         offset="0"
         stop-color="#616161"
         id="stop5" /><stop
         offset="0.239"
         stop-color="#616161"
         id="stop7" /><stop
         offset="1"
         id="stop9" /></linearGradient></defs><g
     clip-path="url(#clip0)"
     transform="translate(-680.25,-1459.25)"
     id="g24"><rect
       x="694"
       y="1473"
       width="747"
       height="740"
       stroke="#70ad47"
       stroke-width="27.5"
       stroke-miterlimit="8"
       fill="url(#fill1)"
       id="rect14"
       style="fill:url(#fill1)" /><text
       fill="#70ad47"
       font-family="Calibri, Calibri_MSFontService, sans-serif"
       font-weight="400"
       font-size="440px"
       transform="translate(851.898,1949)"
       id="text16">Gr</text><text
       fill="#70ad47"
       font-family="Calibri, Calibri_MSFontService, sans-serif"
       font-weight="400"
       font-size="92px"
       transform="translate(882.056,2122)"
       id="text18">Graphium</text><path
       d="m 878.926,1543.46 c -3.217,0 -6.195,0.71 -8.936,2.14 -2.74,1.43 -5.287,3.41 -7.64,5.94 -2.353,2.54 -4.527,5.56 -6.523,9.07 -1.995,3.52 -3.887,7.36 -5.674,11.53 1.37,3.04 2.949,5.99 4.736,8.85 1.787,2.86 3.828,5.4 6.121,7.64 2.294,2.23 4.87,4.02 7.729,5.36 2.86,1.34 6.047,2.01 9.561,2.01 3.396,0 6.434,-0.73 9.115,-2.19 2.68,-1.46 4.959,-3.49 6.835,-6.08 1.877,-2.59 3.306,-5.64 4.289,-9.16 0.983,-3.51 1.475,-7.35 1.475,-11.52 0,-3.28 -0.417,-6.36 -1.251,-9.25 -0.834,-2.89 -2.115,-5.39 -3.843,-7.51 -1.727,-2.11 -3.916,-3.78 -6.567,-5 -2.651,-1.22 -5.793,-1.83 -9.427,-1.83 z m -68.446,-2.59 c -2.979,0 -5.853,0.52 -8.623,1.56 -2.77,1.04 -5.213,2.64 -7.327,4.78 -2.115,2.15 -3.798,4.87 -5.049,8.18 -1.251,3.3 -1.876,7.19 -1.876,11.66 0,3.75 0.461,7.24 1.385,10.45 0.923,3.22 2.323,6 4.199,8.36 1.877,2.35 4.2,4.2 6.97,5.54 2.77,1.34 6.031,2.01 9.784,2.01 3.098,0 5.883,-0.67 8.355,-2.01 2.472,-1.34 4.825,-3.28 7.059,-5.81 2.234,-2.53 4.423,-5.65 6.568,-9.34 2.144,-3.69 4.468,-7.92 6.97,-12.69 -3.515,-8.04 -7.7,-13.83 -12.555,-17.38 -4.855,-3.54 -10.142,-5.31 -15.86,-5.31 z m -1.073,-9.12 c 3.813,0 7.342,0.61 10.589,1.83 3.246,1.23 6.24,2.94 8.98,5.14 2.74,2.21 5.242,4.84 7.506,7.91 2.264,3.07 4.349,6.45 6.255,10.14 2.502,-5 5.182,-9.13 8.042,-12.37 2.859,-3.25 5.838,-5.81 8.935,-7.69 3.098,-1.87 6.3,-3.17 9.606,-3.89 3.306,-0.71 6.657,-1.07 10.053,-1.07 4.884,0 9.307,0.96 13.269,2.86 3.961,1.91 7.327,4.51 10.097,7.82 2.77,3.31 4.9,7.15 6.389,11.53 1.489,4.38 2.234,9.01 2.234,13.89 0,5.3 -0.775,10.22 -2.323,14.75 -1.549,4.52 -3.753,8.45 -6.613,11.79 -2.859,3.34 -6.344,5.96 -10.454,7.86 -4.111,1.91 -8.727,2.86 -13.85,2.86 -3.813,0 -7.283,-0.7 -10.41,-2.1 -3.128,-1.4 -5.987,-3.27 -8.578,-5.63 -2.592,-2.35 -4.96,-5.12 -7.104,-8.31 -2.145,-3.18 -4.111,-6.56 -5.898,-10.14 -2.382,4.77 -4.944,8.79 -7.684,12.06 -2.74,3.28 -5.585,5.96 -8.534,8.05 -2.948,2.08 -5.972,3.59 -9.069,4.51 -3.098,0.92 -6.196,1.38 -9.293,1.38 -6.017,0 -11.229,-1.02 -15.637,-3.08 -4.409,-2.05 -8.072,-4.79 -10.991,-8.22 -2.919,-3.42 -5.093,-7.37 -6.523,-11.84 -1.43,-4.47 -2.145,-9.11 -2.145,-13.94 0,-5.18 0.775,-9.98 2.324,-14.38 1.548,-4.41 3.753,-8.23 6.612,-11.44 2.859,-3.22 6.329,-5.74 10.41,-7.55 4.08,-1.82 8.682,-2.73 13.805,-2.73 z"
       fill="#70ad47"
       fill-rule="evenodd"
       id="path20" /><text
       fill="#000000"
       fill-opacity="0"
       font-family="Arial, Arial_MSFontService, sans-serif"
       font-size="73.3608px"
       x="776.25598"
       y="1595.9399"
       id="text22">∞</text></g></svg>
