<?xml version="1.0" encoding="UTF-8" standalone="no"?>
<svg
   width="229.75"
   height="275.90289"
   xml:space="preserve"
   overflow="hidden"
   version="1.1"
   id="svg10"
   sodipodi:docname="logo-mini-dark.svg"
   inkscape:version="1.1 (c68e22c387, 2021-05-23)"
   xmlns:inkscape="http://www.inkscape.org/namespaces/inkscape"
   xmlns:sodipodi="http://sodipodi.sourceforge.net/DTD/sodipodi-0.dtd"
   xmlns="http://www.w3.org/2000/svg"
   xmlns:svg="http://www.w3.org/2000/svg"><defs
     id="defs14" /><sodipodi:namedview
     id="namedview12"
     pagecolor="#ffffff"
     bordercolor="#666666"
     borderopacity="1.0"
     inkscape:pageshadow="2"
     inkscape:pageopacity="0.0"
     inkscape:pagecheckerboard="0"
     showgrid="false"
     inkscape:zoom="2.6479751"
     inkscape:cx="114.99353"
     inkscape:cy="159.55588"
     inkscape:window-width="1920"
     inkscape:window-height="1009"
     inkscape:window-x="1912"
     inkscape:window-y="-8"
     inkscape:window-maximized="1"
     inkscape:current-layer="svg10" /><g
     transform="translate(-4011.125,-2023.9863)"
     id="g8"><path
       d="m 4018,2107 106.34,-65 109.66,60 v 126.67 L 4130.98,2292 4018,2233.67 Z"
       stroke="#000000"
       stroke-width="13.75"
       stroke-miterlimit="8"
       fill="none"
       fill-rule="evenodd"
       id="path2" /><text
       font-family="Calibri, Calibri_MSFontService, sans-serif"
       font-weight="400"
       font-size="147px"
       transform="translate(4079.45,2216)"
       id="text4">G</text><path
       d="m 4060.6,2026.42 c -7.6,4.45 -10,13.11 -11.57,21.5 -8.08,-2.74 -16.8,-4.89 -24.41,-0.44 -8.46,4.95 -11.3,15.82 -6.35,24.28 4.95,8.46 15.82,11.3 24.28,6.35 7.59,-4.43 9.88,-12.83 11.51,-21.6 8.37,2.86 16.87,5 24.47,0.54 8.46,-4.95 11.31,-15.82 6.35,-24.28 -4.95,-8.46 -15.82,-11.3 -24.28,-6.35 z m -13.67,28.74 c -1.62,8.51 -3.44,13.96 -8.06,16.66 -4.98,2.92 -11.39,1.24 -14.31,-3.74 -2.91,-4.98 -1.24,-11.39 3.75,-14.31 4.65,-2.72 10.71,-1.54 18.38,1.05 l 0.25,0.09 z m 27.92,-4.4 c -4.63,2.71 -10.48,1.56 -18.43,-1.16 l -0.26,-0.09 0.04,-0.25 c 1.48,-7.96 3.47,-13.84 8.09,-16.54 4.98,-2.92 11.38,-1.25 14.3,3.74 2.92,4.98 1.24,11.38 -3.74,14.3 z"
       fill-rule="evenodd"
       id="path6" /></g></svg>
