<svg width="550" height="558" xmlns="http://www.w3.org/2000/svg" xmlns:xlink="http://www.w3.org/1999/xlink" xml:space="preserve" overflow="hidden"><g transform="translate(-2589 -1919)"><path d="M2591.5 2012.34C2591.5 1962.17 2632.17 1921.5 2682.34 1921.5L3045.66 1921.5C3095.83 1921.5 3136.5 1962.17 3136.5 2012.34L3136.5 2375.66C3136.5 2425.83 3095.83 2466.5 3045.66 2466.5L2682.34 2466.5C2632.17 2466.5 2591.5 2425.83 2591.5 2375.66Z" stroke="#FFFFFF" stroke-width="4.58333" stroke-miterlimit="8" fill="#659146" fill-rule="evenodd"/><text fill="#FFFFFF" font-family="Arial,Arial_MSFontService,sans-serif" font-weight="400" font-size="92" transform="matrix(1 0 0 1 2672.19 2400)">graphium</text><path d="M2757 2107 2863.83 2042 2974 2102 2974 2228.67 2870.51 2292 2757 2233.67 2757 2107Z" stroke="#FFFFFF" stroke-width="13.75" stroke-miterlimit="8" fill="none" fill-rule="evenodd"/><text fill="#FFFFFF" font-family="Calibri,Calibri_MSFontService,sans-serif" font-weight="400" font-size="147" transform="matrix(1 0 0 1 2819.15 2216)">G</text><path d="M2800.3 2026.42C2792.69 2030.87 2790.3 2039.53 2788.73 2047.92 2780.65 2045.18 2771.93 2043.03 2764.32 2047.48 2755.86 2052.43 2753.02 2063.3 2757.97 2071.76 2762.92 2080.22 2773.79 2083.06 2782.25 2078.11 2789.83 2073.68 2792.13 2065.28 2793.76 2056.51 2802.13 2059.37 2810.62 2061.51 2818.23 2057.05 2826.69 2052.1 2829.53 2041.23 2824.58 2032.77 2819.63 2024.31 2808.76 2021.47 2800.3 2026.42ZM2786.63 2055.16C2785.01 2063.67 2783.18 2069.12 2778.57 2071.82 2773.58 2074.74 2767.18 2073.06 2764.26 2068.08 2761.34 2063.1 2763.02 2056.69 2768 2053.77 2772.66 2051.05 2778.71 2052.23 2786.39 2054.82L2786.63 2054.91ZM2814.55 2050.76C2809.92 2053.47 2804.06 2052.32 2796.12 2049.6L2795.85 2049.51 2795.89 2049.26C2797.38 2041.3 2799.37 2035.42 2803.98 2032.72 2808.97 2029.8 2815.37 2031.47 2818.29 2036.46 2821.2 2041.44 2819.53 2047.84 2814.55 2050.76Z" fill="#FFFFFF" fill-rule="evenodd"/></g></svg>