<svg width="2633" height="903" xmlns="http://www.w3.org/2000/svg" xmlns:xlink="http://www.w3.org/1999/xlink" xml:space="preserve" overflow="hidden"><defs><clipPath id="clip0"><rect x="980" y="1031" width="2633" height="903"/></clipPath><linearGradient x1="980" y1="1482.5" x2="3613" y2="1482.5" gradientUnits="userSpaceOnUse" spreadMethod="reflect" id="fill1"><stop offset="0" stop-color="#548235"/><stop offset="0.31" stop-color="#548235"/><stop offset="0.89" stop-color="#8DB771"/><stop offset="1" stop-color="#8DB771"/></linearGradient><radialGradient cx="1418322" cy="0.0625" r="2013001" fx="1418322" fy="0" gradientUnits="userSpaceOnUse" spreadMethod="pad" id="fill2" gradientTransform="matrix(0.000257151 0.000253213 -0.000253213 0.000257151 1652.3 1127.15)"><stop offset="0" stop-color="#E2F0D9" stop-opacity="0"/><stop offset="0.19" stop-color="#E2F0D9" stop-opacity="0"/><stop offset="0.29" stop-color="#E2F0D9" stop-opacity="0.309804"/><stop offset="0.68" stop-color="#E2F0D9" stop-opacity="0"/><stop offset="1" stop-color="#E2F0D9" stop-opacity="0"/></radialGradient></defs><g clip-path="url(#clip0)" transform="translate(-980 -1031)"><path d="M980 1181.5C980 1098.38 1047.38 1031 1130.5 1031L3462.5 1031C3545.62 1031 3613 1098.38 3613 1181.5L3613 1783.5C3613 1866.62 3545.62 1934 3462.5 1934L1130.5 1934C1047.38 1934 980 1866.62 980 1783.5Z" fill="url(#fill1)" fill-rule="evenodd"/><path d="M1855.5 1288.34C1855.5 1238.17 1896.17 1197.5 1946.34 1197.5L2309.66 1197.5C2359.83 1197.5 2400.5 1238.17 2400.5 1288.34L2400.5 1651.66C2400.5 1701.83 2359.83 1742.5 2309.66 1742.5L1946.34 1742.5C1896.17 1742.5 1855.5 1701.83 1855.5 1651.66Z" stroke="#FFFFFF" stroke-width="4.58333" stroke-miterlimit="8" fill="none" fill-rule="evenodd"/><path d="M2021 1386 2127.83 1321 2238 1381 2238 1507.67 2134.51 1571 2021 1512.67 2021 1386Z" stroke="#FFFFFF" stroke-width="13.75" stroke-miterlimit="8" fill="none" fill-rule="evenodd"/><text fill="#FFFFFF" font-family="Arial,Arial_MSFontService,sans-serif" font-weight="400" font-size="92" transform="matrix(1 0 0 1 1936.21 1677)">graphium</text><path d="M1141.59 1451.59 1143.95 1362.67" stroke="#FFFFFF" stroke-width="10.3125" stroke-miterlimit="8" fill="none" fill-rule="evenodd"/><path d="M1141.59 1451.59 1215.54 1495.66 1214.4 1582.01 1137.21 1622.79 1065.35 1580.22 1064.4 1492.37 1141.59 1451.59Z" stroke="#FFFFFF" stroke-width="10.3125" stroke-miterlimit="8" fill="none" fill-rule="evenodd"/><path d="M1216.38 1492.61 1304.54 1465.14 1357.8 1540.56 1302.56 1614.64 1215.16 1585Z" stroke="#FFFFFF" stroke-width="10.3125" stroke-miterlimit="8" fill="none" fill-rule="evenodd"/><path d="M1411.33 1277.37 1354.08 1223.38" stroke="#FFFFFF" stroke-width="10.3125" stroke-miterlimit="8" fill="none" fill-rule="evenodd"/><path d="M1304.6 1461.23 1316.2 1397.74 1393.29 1357.36 1411.33 1277.37 1488.53 1236.14" stroke="#FFFFFF" stroke-width="10.3125" stroke-miterlimit="8" fill="none" fill-rule="evenodd"/><path d="M2991.46 1518.59 2993.82 1429.67" stroke="#FFFFFF" stroke-width="10.3125" stroke-miterlimit="8" fill="none" fill-rule="evenodd"/><path d="M2991.46 1518.59 3065.41 1562.66 3064.27 1649.01 2987.08 1689.79 2915.22 1647.21 2914.27 1559.37 2991.46 1518.59Z" stroke="#FFFFFF" stroke-width="10.3125" stroke-miterlimit="8" fill="none" fill-rule="evenodd"/><path d="M3066.25 1559.6 3154.41 1532.14 3207.67 1607.56 3152.43 1681.64 3065.03 1652Z" stroke="#FFFFFF" stroke-width="10.3125" stroke-miterlimit="8" fill="none" fill-rule="evenodd"/><path d="M3261.2 1344.36 3203.95 1290.38" stroke="#FFFFFF" stroke-width="10.3125" stroke-miterlimit="8" fill="none" fill-rule="evenodd"/><path d="M3154.47 1528.23 3166.07 1464.73 3243.16 1424.36 3261.2 1344.36 3338.4 1303.14" stroke="#FFFFFF" stroke-width="10.3125" stroke-miterlimit="8" fill="none" fill-rule="evenodd"/><path d="M0 367C-4.6724e-14 164.311 164.311-4.6724e-14 367-9.3448e-14 569.688-1.86896e-13 734 164.311 734 367 734 569.688 569.688 734 367 734 164.311 734-2.3362e-13 569.688 0 367Z" stroke="#FFFFFF" stroke-width="12.6042" stroke-miterlimit="8" stroke-opacity="0.360784" fill="none" fill-rule="evenodd" transform="matrix(1 0 0 -1 2790.5 1873.5)"/><path d="M3110.83 1658.53 3168.28 1632.82 3193.99 1690.28 3136.53 1715.99Z" stroke="#FFFFFF" stroke-width="12.6042" stroke-miterlimit="8" stroke-opacity="0.360784" fill="none" fill-rule="evenodd"/><path d="M2959.5 1420.33 2980.02 1413.64 2992.5 1395.5 3004.98 1413.64 3025.5 1420.33 3012.7 1438.23 3012.89 1460.5 2992.5 1453.42 2972.1 1460.5 2972.3 1438.23Z" stroke="#FFFFFF" stroke-width="12.6042" stroke-miterlimit="8" stroke-opacity="0.360784" fill="none" fill-rule="evenodd"/><path d="M5.97417-1.85346 32.3956 5.77278 30.489 12.3781 4.06761 4.7519ZM52.2116 11.4925 78.633 19.1187 76.7265 25.724 50.3051 18.0978ZM98.4491 24.8384 124.87 32.4646 122.964 39.07 96.5425 31.4437ZM144.687 38.1843 171.108 45.8105 169.201 52.4159 142.78 44.7896ZM190.924 51.5302 217.345 59.1564 215.439 65.7618 189.017 58.1355ZM15.2935 23.8034 0.00464931 0.00134163 25.6256-11.9926C27.345-12.7975 29.3913-12.0562 30.1962-10.3368 31.0011-8.61737 30.2598-6.57101 28.5404-5.76611L6.47748 4.56224 7.91231-0.408798 21.078 20.0878C22.104 21.6852 21.6408 23.8118 20.0435 24.8379 18.4462 25.8639 16.3195 25.4007 15.2935 23.8034Z" fill="#FFFFFF" fill-opacity="0.501961" transform="matrix(-1 0 0 1 1654.49 1327.5)"/><path d="M1652.33 1127.17 1924.92 1401.42C1901.5 1424.7 1888.39 1456.4 1888.53 1489.43 1888.66 1522.46 1902.03 1554.05 1925.65 1577.14L1655.32 1853.62C1557.7 1758.17 1502.42 1627.56 1501.85 1491.03 1501.29 1354.49 1555.49 1223.43 1652.33 1127.17Z" fill="url(#fill2)" fill-rule="evenodd"/><path d="M2397.23 1548.2 2405.77 1558.78 2405.72 1558.73 2411.75 1565.84 2407.38 1569.54 2401.33 1562.41 2392.77 1551.8ZM2423.06 1578.69 2423.07 1578.69 2423.02 1578.64 2431.87 1588.1 2431.79 1588.02 2438.86 1595.03 2434.83 1599.1 2427.72 1592.05 2418.81 1582.53 2418.78 1582.5ZM2451.03 1606.96 2468.09 1622.26 2464.27 1626.53 2447.2 1611.23ZM2481.33 1632.99 2486.82 1637.44 2486.71 1637.35 2499.5 1646.72 2496.12 1651.34 2483.27 1641.94 2477.73 1637.44ZM2513.51 1656.44 2525.38 1664.3 2525.27 1664.23 2532.72 1668.68 2529.77 1673.6 2522.27 1669.11 2510.34 1661.22ZM2547.41 1677.35 2565.42 1687.09 2565.32 1687.04 2567.51 1688.11 2564.99 1693.26 2562.75 1692.16 2544.69 1682.39ZM2582.95 1695.67 2585.99 1697.16 2585.89 1697.12 2603.74 1705.05 2601.41 1710.28 2583.51 1702.33 2580.43 1700.82ZM2619.54 1711.56 2628.16 1715.05 2628.08 1715.02 2640.85 1719.73 2638.87 1725.11 2626.05 1720.38 2617.39 1716.87ZM2656.97 1725.47 2671.68 1730.45 2671.62 1730.43 2678.67 1732.64 2676.95 1738.11 2669.88 1735.89 2655.13 1730.89ZM2695.02 1737.74 2716.49 1744.01 2716.41 1743.99 2716.94 1744.12 2715.5 1749.67 2714.93 1749.52 2693.41 1743.24ZM2733.58 1748.45 2739.37 1749.96 2739.26 1749.93 2755.8 1753.5 2754.59 1759.1 2737.99 1755.52 2732.13 1753.99ZM2772.57 1756.69 2786.26 1759.07 2786.14 1759.05 2795.09 1760.23 2794.34 1765.91 2785.33 1764.72 2771.59 1762.34ZM2812.02 1762.39 2834.69 1764.46 2834.58 1764.46 2834.73 1764.46 2834.43 1770.19 2834.23 1770.17 2811.5 1768.09ZM2851.9 1765.37 2859.48 1765.76 2859.37 1765.76 2874.69 1765.98 2874.61 1771.71 2859.24 1771.49 2851.6 1771.09ZM2891.77 1765.97 2910.18 1765.56 2910.08 1765.56 2914.57 1765.3 2914.91 1771.02 2910.36 1771.28 2891.9 1771.7ZM2931.73 1764.3 2936.08 1764.04 2935.98 1764.05 2954.46 1762.32 2954.99 1768.03 2936.47 1769.76 2932.07 1770.02ZM2971.44 1760.42 2988.96 1758.18 2988.87 1758.19 2994.06 1757.35 2994.97 1763.01 2989.74 1763.86 2972.17 1766.1ZM3011.02 1754.62 3015.93 1753.82 3015.84 1753.84 3033.46 1750.42 3034.55 1756.04 3016.89 1759.47 3011.94 1760.27ZM3050.2 1746.94 3070.9 1742.25 3070.81 1742.27 3072.45 1741.85 3073.88 1747.4 3072.2 1747.83 3051.46 1752.53ZM3089.1 1737.55 3098.89 1735.03 3098.81 1735.05 3111.11 1731.5 3112.7 1737 3100.36 1740.57 3090.53 1743.1ZM3102.97 1717.89 3128 1729.6 3113.07 1752.85C3112.21 1754.19 3110.44 1754.57 3109.11 1753.72 3107.78 1752.86 3107.39 1751.09 3108.25 1749.76L3121.41 1729.26 3122.6 1733.4 3100.54 1723.08C3099.1 1722.41 3098.49 1720.7 3099.16 1719.27 3099.83 1717.84 3101.53 1717.22 3102.97 1717.89Z" fill="#FFFFFF"/><path d="M2402.97 1444.33 2421.83 1437.05 2424.45 1436.12 2426.36 1441.52 2423.78 1442.43 2423.85 1442.41 2405.03 1449.67ZM2440.65 1430.38 2440.69 1430.37 2459.5 1424.28 2462.62 1423.36 2464.25 1428.85 2461.16 1429.76 2461.23 1429.74 2442.49 1435.81 2442.56 1435.78 2442.56 1435.78ZM2479.18 1418.49 2496.93 1413.73 2501.41 1412.65 2502.76 1418.21 2498.31 1419.29 2498.38 1419.28 2480.67 1424.03ZM2518.19 1408.64 2534.03 1405.17 2540.67 1403.86 2541.77 1409.48 2535.16 1410.78 2535.22 1410.77 2519.42 1414.23ZM2557.61 1400.64 2570.71 1398.33 2580.26 1396.84 2581.15 1402.5 2571.63 1403.99 2571.68 1403.98 2558.6 1406.28ZM2597.34 1394.38 2620.06 1391.4 2620.81 1397.08 2598.08 1400.06ZM2637.23 1389.52 2660.05 1387.2 2660.09 1387.19 2660.54 1392.91 2660.53 1392.91 2660.6 1392.9 2637.81 1395.22ZM2677.23 1385.85 2694.63 1384.47 2700.15 1384.18 2700.46 1389.9 2694.97 1390.19 2695.04 1390.19 2677.68 1391.56ZM2717.41 1383.42 2728.64 1383.16 2740.4 1383.21 2740.38 1388.94 2728.66 1388.89 2728.74 1388.89 2717.54 1389.15ZM2757.66 1383.61 2762.07 1383.74 2778.55 1384.63 2780.67 1384.79 2780.24 1390.51 2778.15 1390.35 2778.21 1390.35 2761.79 1389.46 2761.86 1389.47 2757.48 1389.33ZM2797.88 1386.17 2820.68 1388.53 2820.09 1394.22 2797.29 1391.87ZM2837.82 1390.6 2858.64 1393.35 2860.59 1393.65 2859.73 1399.31 2857.81 1399.02 2857.86 1399.03 2837.07 1396.28ZM2877.58 1396.21 2889.56 1398.02 2900.25 1399.72 2899.35 1405.38 2888.67 1403.68 2888.69 1403.68 2876.73 1401.88ZM2917.23 1402.42 2919.83 1402.83 2939.86 1405.96 2938.98 1411.62 2918.93 1408.49 2916.33 1408.08ZM2931.25 1389.1 2949 1410.28 2925.64 1425.06C2924.31 1425.9 2922.54 1425.5 2921.69 1424.17 2920.84 1422.83 2921.24 1421.06 2922.58 1420.21L2943.17 1407.19 2942.5 1411.45 2926.86 1392.77C2925.84 1391.56 2926 1389.75 2927.22 1388.74 2928.43 1387.72 2930.24 1387.88 2931.25 1389.1Z" fill="#FFFFFF"/><path d="M2399.56 1413.52 2419.39 1402.03 2422.26 1406.99 2402.44 1418.48ZM2434.36 1393.51 2451.37 1383.96 2454.4 1382.31 2457.14 1387.35 2454.12 1388.99 2454.16 1388.97 2437.17 1398.51ZM2469.5 1374.11 2476.09 1370.52 2489.78 1363.34 2492.44 1368.41 2478.77 1375.59 2478.81 1375.57 2472.24 1379.14ZM2505.07 1355.39 2523.24 1346.17 2525.56 1345.04 2528.07 1350.19 2525.78 1351.31 2525.82 1351.29 2507.66 1360.5ZM2541 1337.49 2545.7 1335.19 2561.74 1327.65 2564.18 1332.83 2548.16 1340.37 2548.2 1340.35 2543.52 1342.64ZM2577.4 1320.46 2588.46 1315.46 2598.38 1311.15 2600.67 1316.4 2590.76 1320.7 2590.8 1320.68 2579.76 1325.68ZM2614.22 1304.36 2628.43 1298.45 2635.47 1295.65 2637.59 1300.97 2630.57 1303.77 2630.61 1303.75 2616.43 1309.65ZM2651.5 1289.34 2665.73 1283.92 2673 1281.28 2674.95 1286.66 2667.71 1289.29 2667.75 1289.28 2653.54 1294.69ZM2689.22 1275.48 2700.49 1271.58 2710.97 1268.12 2712.77 1273.56 2702.31 1277.01 2702.35 1277 2691.1 1280.89ZM2727.38 1262.87 2732.82 1261.17 2748.11 1256.6 2749.39 1256.23 2750.96 1261.74 2749.69 1262.1 2749.73 1262.09 2734.48 1266.65 2734.52 1266.64 2729.1 1268.34ZM2765.97 1251.56 2777.01 1248.57 2788.16 1245.69 2789.59 1251.24 2778.46 1254.11 2778.49 1254.11 2767.47 1257.09ZM2804.89 1241.53 2816.39 1238.79 2827.22 1236.3 2828.51 1241.88 2817.68 1244.37 2817.7 1244.37 2806.22 1247.1ZM2844.02 1232.54 2851.34 1230.92 2862.07 1228.56 2866.4 1227.6 2867.64 1233.2 2863.3 1234.16 2852.57 1236.52 2845.26 1238.13ZM2883.13 1223.83 2891.73 1221.81 2891.69 1221.82 2900.81 1219.56 2900.73 1219.58 2905.26 1218.33 2906.78 1223.85 2902.22 1225.11 2893.06 1227.38 2884.44 1229.41ZM2921.79 1213.72 2926.5 1212.38 2935.95 1209.93 2944.12 1208.01 2945.43 1213.58 2937.3 1215.5 2937.36 1215.48 2927.98 1217.91 2928.04 1217.9 2923.37 1219.23ZM2961.04 1204.41 2968.29 1203 2980.22 1200.89 2983.69 1200.33 2984.59 1205.99 2981.15 1206.54 2981.19 1206.53 2969.31 1208.64 2969.36 1208.63 2962.14 1210.04ZM3000.73 1197.76 3005.51 1197.08 3018.76 1195.42 3023.56 1194.9 3024.18 1200.6 3019.4 1201.11 3019.45 1201.11 3006.25 1202.76 3006.29 1202.75 3001.54 1203.43ZM3040.75 1193.26 3060.28 1191.66 3063.7 1191.51 3063.96 1197.23 3060.59 1197.38 3060.69 1197.38 3041.21 1198.97ZM3080.87 1190.73 3088.9 1190.37 3103.89 1190.3 3103.92 1196.02 3088.99 1196.1 3089.1 1196.1 3081.13 1196.46ZM3121.21 1190.37 3144.1 1191.3 3143.87 1197.02 3120.97 1196.09ZM3161.43 1192.6 3174.62 1194.03 3184.27 1195.38 3183.47 1201.06 3173.87 1199.71 3173.95 1199.72 3160.82 1198.3ZM3201.32 1198.23 3201.72 1198.3 3214.77 1201.1 3223.86 1203.45 3222.42 1209 3213.39 1206.66 3213.51 1206.69 3200.58 1203.91 3200.68 1203.93 3200.33 1203.87ZM3240.58 1208.5 3251.21 1212.4 3262 1217.08 3259.71 1222.34 3249 1217.69 3249.16 1217.75 3238.61 1213.88ZM3277.45 1225.45 3282.52 1228.54 3291.56 1235.1 3296.3 1239.25 3292.53 1243.56 3287.89 1239.51 3288.09 1239.66 3279.24 1233.24 3279.44 1233.37 3274.47 1230.34ZM3304 1224.39 3305 1252.01 3277.49 1249.33C3275.92 1249.18 3274.77 1247.78 3274.92 1246.2 3275.07 1244.63 3276.47 1243.47 3278.05 1243.63L3302.29 1245.99 3299.15 1248.94 3298.27 1224.6C3298.22 1223.01 3299.45 1221.69 3301.03 1221.63 3302.61 1221.57 3303.94 1222.81 3304 1224.39Z" fill="#FFFFFF"/><text fill="#FFFFFF" font-family="Amasis MT Pro,Amasis MT Pro_MSFontService,sans-serif" font-weight="400" font-size="183" transform="matrix(1 0 0 1 2062.57 1501)">∞</text><path d="M2886 1604C2886 1588.54 2898.31 1576 2913.5 1576 2928.69 1576 2941 1588.54 2941 1604 2941 1619.46 2928.69 1632 2913.5 1632 2898.31 1632 2886 1619.46 2886 1604Z" fill="#FFFFFF" fill-rule="evenodd" fill-opacity="0.478431"/><path d="M3377.5 1303.5 3361.76 1309.1 3361.76 1297.9ZM3366.07 1275.92 3358.91 1291.01 3350.99 1283.09ZM3338.5 1264.5 3344.1 1280.24 3332.9 1280.24ZM3310.92 1275.92 3326.01 1283.09 3318.09 1291.01ZM3299.5 1303.5 3315.24 1297.9 3315.24 1309.1ZM3310.92 1331.07 3318.09 1315.99 3326.01 1323.91ZM3338.5 1342.5 3332.9 1326.76 3344.1 1326.76ZM3366.07 1331.07 3350.99 1323.91 3358.91 1315.99ZM3319 1303.5C3319 1292.73 3327.73 1284 3338.5 1284 3349.27 1284 3358 1292.73 3358 1303.5 3358 1314.27 3349.27 1323 3338.5 1323 3327.73 1323 3319 1314.27 3319 1303.5Z" stroke="#FFFFFF" stroke-width="12.6042" stroke-miterlimit="8" stroke-opacity="0.360784" fill="none" fill-rule="evenodd"/><path d="M72.0381 91.9233 64.3558 93.4743 58.0288 92.1968 55.3854 103.156C54.6092 106.952 54.1255 110.295 54.1513 112.833 54.2544 122.986 61.314 127.107 65.0523 127.107 68.7883 127.107 76.5227 122.906 76.5743 112.833 76.5968 108.426 74.9454 101.985 72.8652 94.8446ZM29.7912 87.0071C26.3333 87.0071 23.5303 89.8101 23.5303 93.2679 23.5303 96.7257 26.3333 99.5287 29.7912 99.5287 33.249 99.5287 36.052 96.7257 36.052 93.2679 36.052 89.8101 33.249 87.0071 29.7912 87.0071ZM100.933 87.0071C97.4756 87.0071 94.6726 89.8101 94.6726 93.2679 94.6726 96.7257 97.4756 99.5287 100.933 99.5287 104.391 99.5287 107.194 96.7257 107.194 93.2679 107.194 89.8101 104.391 87.0071 100.933 87.0071ZM70.0958 64.8314 68.7831 68.0006 65.8784 69.2038 66.5835 72.6599 72.0381 91.9233 75.9946 91.1245C84.0435 87.7201 90.2914 80.8918 92.9123 72.4652L93.1954 70.592 90.7563 70.0038C86.4023 68.8584 81.9445 67.6369 77.733 66.5556ZM58.4791 64.5002 49.375 66.5556C45.1634 67.6369 40.7055 68.8584 36.3514 70.0038L35.4596 70.2189 35.7993 72.4652C38.4202 80.8918 44.6681 87.7201 52.717 91.1245L58.0288 92.1968 58.3762 90.7558C59.5216 86.4018 60.7433 81.9438 61.8246 77.7326L63.6716 69.551 59.9289 68.0006ZM64.4676 63.9212 64.4311 66.1871 63.6716 69.551 64.356 69.8343 65.8784 69.2038 65.6904 68.2831 65.5085 63.9381ZM58.4895 62.6214 58.0951 63.5735 58.4791 64.5002 60.9205 63.9489 63.5539 63.9064 64.4676 63.9212 64.4737 63.5535 64.4622 62.8497 63.5539 62.8879 58.8244 62.6896ZM70.0975 62.3195 68.2835 62.6896 65.5237 62.8052 65.4924 63.5535 65.5085 63.9381 66.1875 63.9489 70.0958 64.8314 70.6168 63.5735ZM64.356 57.3127 63.6799 57.5928 64.4311 60.9199 64.4622 62.8497 65.5237 62.8052 65.6904 58.8241 65.8707 57.9402ZM14.2741 51.8058C4.2013 51.8574 0 59.5918 0 63.3277 0 67.0662 4.12054 74.1256 14.2741 74.2286 16.8123 74.2545 20.1547 73.7708 23.951 72.9946L35.4596 70.2189 34.4551 63.5737 35.5335 56.4411 32.2626 55.5149C25.122 53.4347 18.6807 51.7833 14.2741 51.8058ZM112.834 51.8058C108.427 51.7833 101.986 53.4347 94.8451 55.5149L93.1124 56.0057 94.2565 63.5737 93.1954 70.592 103.157 72.9946C106.953 73.7708 110.295 74.2545 112.834 74.2286 122.987 74.1256 127.108 67.0662 127.108 63.3277 127.108 59.5918 122.906 51.8574 112.834 51.8058ZM72.0272 35.2219 66.5835 54.4471 65.8707 57.9402 68.7831 59.1465 70.0975 62.3195 72.6605 61.7965 93.1124 56.0057 92.9123 54.6823C90.2914 46.2558 84.0435 39.4274 75.9946 36.023ZM58.038 34.9488 52.717 36.023C44.6681 39.4274 38.4202 46.2558 35.7993 54.6823L35.5335 56.4411 54.4474 61.7965 58.4895 62.6214 59.9289 59.1465 63.6799 57.5928 61.8246 49.3747C60.7433 45.1632 59.5216 40.7055 58.3762 36.3514ZM29.7912 27.4122C26.3333 27.4122 23.5303 30.2152 23.5303 33.673 23.5303 37.1308 26.3333 39.9338 29.7912 39.9338 33.249 39.9338 36.052 37.1308 36.052 33.673 36.052 30.2152 33.249 27.4122 29.7912 27.4122ZM100.933 27.4122C97.4756 27.4122 94.6726 30.2152 94.6726 33.673 94.6726 37.1308 97.4756 39.9338 100.933 39.9338 104.391 39.9338 107.194 37.1308 107.194 33.673 107.194 30.2152 104.391 27.4122 100.933 27.4122ZM65.0523 0C61.314 0 54.2544 4.12073 54.1513 14.274 54.1255 16.8124 54.6092 20.1546 55.3854 23.9509L58.038 34.9488 64.3558 33.6732 72.0272 35.2219 72.8652 32.2624C74.9454 25.1219 76.5968 18.6808 76.5743 14.274 76.5227 4.20148 68.7883 0 65.0523 0Z" stroke="#FFFFFF" stroke-width="6.875" stroke-miterlimit="8" fill="none" fill-rule="evenodd" transform="matrix(-0.656152 -0.754628 -0.754628 0.656152 1818.44 1330.64)"/><path d="M1693.84 1438.47C1690.9 1427.5 1687.95 1416.53 1681.3 1415.58 1674.64 1414.62 1658.68 1422.82 1653.92 1432.74 1649.17 1442.66 1649.93 1465.75 1652.78 1475.09 1655.63 1484.44 1666.28 1479.67 1671.03 1488.83 1675.78 1497.99 1674.64 1525.07 1681.3 1530.03 1687.95 1534.99 1706.01 1526.41 1710.95 1518.59 1715.9 1510.77 1708.86 1491.88 1710.95 1483.11 1713.04 1474.33 1718.27 1470.13 1723.5 1465.94" stroke="#FFFFFF" stroke-width="6.875" stroke-miterlimit="8" fill="none" fill-rule="evenodd"/><path d="M1689.17 1440.22C1686.8 1429.77 1684.86 1421.17 1679.94 1420.12 1675.02 1419.07 1663.18 1424.89 1659.65 1433.91 1656.11 1442.93 1656.44 1465.35 1658.73 1474.26 1661.02 1483.16 1669.58 1478.62 1673.4 1487.34 1677.22 1496.07 1676.3 1521.88 1681.65 1526.6 1686.99 1531.33 1701.51 1523.15 1705.48 1515.7 1709.45 1508.25 1703.8 1490.25 1705.48 1481.89 1707.16 1473.53 1708.8 1472.1 1713 1468.11" stroke="#FFFFFF" stroke-width="10.3125" stroke-miterlimit="8" stroke-dasharray="10.3125 10.3125" fill="none" fill-rule="evenodd"/><path d="M1700.47 1603.51C1701.62 1594.92 1708.92 1584.45 1717.66 1581.16 1726.39 1577.86 1746.87 1579.87 1752.89 1583.74 1758.9 1587.61 1751.17 1597.49 1753.75 1604.37 1756.33 1611.25 1763.92 1618.99 1768.36 1625.01 1772.8 1631.02 1776.23 1637.62 1780.39 1640.48 1784.54 1643.35 1791.27 1639.19 1793.27 1642.2 1795.28 1645.21 1794.71 1653.38 1792.42 1658.54 1790.12 1663.69 1784.25 1670.86 1779.53 1673.15 1774.8 1675.44 1769.36 1676.3 1764.06 1672.29 1758.76 1668.28 1752.17 1652.09 1747.73 1649.08 1743.29 1646.07 1738.42 1650.94 1737.42 1654.24 1736.42 1657.53 1743.87 1663.98 1741.72 1668.85 1739.57 1673.73 1731.69 1683.04 1724.53 1683.47 1717.37 1683.9 1701.05 1679.89 1698.75 1671.43 1696.46 1662.98 1710.35 1642.77 1710.78 1632.74 1711.21 1622.71 1699.33 1612.11 1700.47 1603.51Z" stroke="#FFFFFF" stroke-width="6.875" stroke-miterlimit="8" fill="#FFFFFF" fill-rule="evenodd" fill-opacity="0.501961"/><path d="M1855.5 1288.34C1855.5 1238.17 1896.17 1197.5 1946.34 1197.5L2309.66 1197.5C2359.83 1197.5 2400.5 1238.17 2400.5 1288.34L2400.5 1651.66C2400.5 1701.83 2359.83 1742.5 2309.66 1742.5L1946.34 1742.5C1896.17 1742.5 1855.5 1701.83 1855.5 1651.66Z" stroke="#FFFFFF" stroke-width="4.58333" stroke-miterlimit="8" fill="#659146" fill-rule="evenodd"/><text fill="#FFFFFF" font-family="Arial,Arial_MSFontService,sans-serif" font-weight="400" font-size="92" transform="matrix(1 0 0 1 1936.56 1676)">graphium</text><path d="M2400.27 1466.15 2423.08 1468.31 2422.54 1474.02 2399.73 1471.85ZM2440.2 1469.94 2463.01 1472.1 2462.47 1477.8 2439.65 1475.64ZM2480.12 1473.72 2502.93 1475.89 2502.39 1481.59 2479.58 1479.43ZM2520.05 1477.51 2542.86 1479.67 2542.32 1485.38 2519.5 1483.21ZM2559.97 1481.3 2582.78 1483.46 2582.24 1489.16 2559.43 1487ZM2599.9 1485.08 2622.71 1487.25 2622.17 1492.95 2599.35 1490.79ZM2639.82 1488.87 2662.63 1491.03 2662.09 1496.74 2639.28 1494.57ZM2679.75 1492.66 2702.56 1494.82 2702.02 1500.53 2679.2 1498.36ZM2719.67 1496.44 2742.48 1498.61 2741.94 1504.31 2719.13 1502.15ZM2759.6 1500.23 2782.41 1502.4 2781.87 1508.1 2759.05 1505.94ZM2770.78 1485.89 2789.77 1505.97 2767.34 1522.12C2766.06 1523.05 2764.27 1522.76 2763.34 1521.47 2762.42 1520.19 2762.71 1518.4 2763.99 1517.47L2783.76 1503.24 2783.35 1507.53 2766.62 1489.83C2765.53 1488.68 2765.58 1486.86 2766.73 1485.78 2767.88 1484.69 2769.69 1484.74 2770.78 1485.89Z" fill="#FFFFFF"/><path d="M2406.98 1513.31 2411.96 1515.11 2411.88 1515.08 2417.51 1516.95 2417.45 1516.93 2423.68 1518.86 2423.64 1518.84 2428.6 1520.29 2427 1525.79 2422.01 1524.34 2415.73 1522.4 2410.04 1520.51 2405.02 1518.69ZM2445.11 1524.81 2445.51 1524.92 2445.49 1524.91 2453.77 1527.03 2453.74 1527.02 2462.44 1529.18 2462.42 1529.18 2467.28 1530.35 2465.94 1535.92 2461.07 1534.74 2452.35 1532.58 2444.06 1530.46 2443.64 1530.35ZM2483.98 1534.3 2500.59 1538.11 2500.57 1538.1 2506.3 1539.38 2505.06 1544.97 2499.32 1543.69 2482.7 1539.88ZM2523.07 1543.1 2542.44 1547.33 2542.43 1547.32 2545.45 1547.97 2544.25 1553.57 2541.23 1552.92 2521.85 1548.7ZM2562.26 1551.57 2584.67 1556.37 2583.47 1561.98 2561.06 1557.17ZM2601.48 1559.96 2606.93 1561.13 2623.89 1564.78 2622.68 1570.38 2605.74 1566.73 2600.28 1565.57ZM2640.69 1568.43 2647.57 1569.94 2663.07 1573.41 2661.82 1579 2646.32 1575.53 2646.34 1575.53 2639.47 1574.03ZM2679.85 1577.26 2683.52 1578.12 2691.5 1580.04 2698.99 1581.9 2698.98 1581.9 2702.15 1582.66 2700.8 1588.23 2697.62 1587.46 2690.13 1585.6 2690.15 1585.61 2682.19 1583.69 2682.21 1583.7 2678.55 1582.84ZM2718.82 1586.59 2726.81 1588.37 2726.75 1588.36 2739.98 1591.03 2739.93 1591.02 2741.15 1591.25 2740.12 1596.88 2738.87 1596.66 2725.59 1593.97 2717.58 1592.19ZM2758.02 1594.22 2765.05 1595.36 2765 1595.35 2777.02 1597.08 2776.95 1597.07 2780.57 1597.49 2779.9 1603.18 2776.25 1602.76 2764.16 1601.02 2757.1 1599.87ZM2797.64 1599.48 2800.03 1599.75 2799.93 1599.75 2820.38 1601.45 2819.9 1607.16 2799.41 1605.45 2796.98 1605.17ZM2837.46 1602.47 2843.08 1602.79 2843.02 1602.78 2860.3 1603.44 2860.08 1609.16 2842.78 1608.51 2837.13 1608.19ZM2877.45 1603.95 2879.73 1604.01 2879.57 1609.74 2877.29 1609.68ZM2863.72 1588.23 2884 1607 2862.7 1624.61C2861.48 1625.62 2859.67 1625.44 2858.66 1624.23 2857.66 1623.01 2857.83 1621.2 2859.05 1620.19L2877.82 1604.67 2877.7 1608.98 2859.82 1592.43C2858.66 1591.36 2858.59 1589.54 2859.67 1588.38 2860.74 1587.22 2862.56 1587.15 2863.72 1588.23Z" fill="#FFFFFF"/><path d="M5.22505-3.43749 32.7251-3.43744 32.725 3.43756 5.22504 3.43751ZM53.3501-3.43741 80.8501-3.43736 80.85 3.43764 53.35 3.43759ZM101.475-3.43732 128.975-3.43727 128.975 3.43773 101.475 3.43768ZM149.6-3.43724 177.1-3.43719 177.1 3.43781 149.6 3.43776ZM197.725-3.43715 204.879-3.43714 204.879 3.43786 197.725 3.43785ZM21.2947 18.6287 0.00483927 3.14798e-07 21.2948-18.6286C22.7235-19.8788 24.8952-19.734 26.1453-18.3052 27.3955-16.8765 27.2507-14.7048 25.822-13.4546L7.48861 2.587 7.48861-2.58697 25.8219 13.4547C27.2507 14.7049 27.3954 16.8766 26.1453 18.3053 24.8951 19.7341 22.7234 19.8788 21.2947 18.6287Z" fill="#FFFFFF" fill-opacity="0.501961" transform="matrix(-1 0 0 1 1620.38 1465.5)"/><path d="M1672.35 1626.38 1645.92 1618.77 1647.83 1612.16 1674.25 1619.77ZM1626.1 1613.05 1599.68 1605.44 1601.58 1598.83 1628.01 1606.45ZM1579.86 1599.73 1553.44 1592.11 1555.34 1585.51 1581.76 1593.12ZM1533.62 1586.4 1507.19 1578.79 1509.1 1572.18 1535.52 1579.8ZM1487.37 1573.08 1460.95 1565.46 1462.85 1558.86 1489.28 1566.47ZM1441.13 1559.75 1414.71 1552.14 1416.61 1545.53 1443.03 1553.15ZM1663.01 1600.73 1678.31 1624.52 1652.7 1636.53C1650.98 1637.33 1648.93 1636.59 1648.13 1634.87 1647.32 1633.15 1648.06 1631.11 1649.78 1630.3L1671.84 1619.96 1670.4 1624.94 1657.23 1604.45C1656.2 1602.85 1656.67 1600.72 1658.26 1599.69 1659.86 1598.67 1661.99 1599.13 1663.01 1600.73Z" fill="#FFFFFF" fill-opacity="0.501961"/><path d="M6.08559-1.44277 31.9265 7.96449 29.5747 14.4247 3.73378 5.01746ZM51.3072 15.0199 77.1481 24.4272 74.7963 30.8874 48.9554 21.4802ZM13.6375 24.7893 0.0045471 0.00165503 26.3825-10.2202C28.1528-10.9062 30.1439-10.0273 30.8299-8.25707 31.5159-6.48686 30.6369-4.49572 28.8667-3.80973L6.15186 4.99263 7.92178 0.130811 19.6615 21.4762C20.5764 23.1397 19.9695 25.2299 18.3061 26.1448 16.6426 27.0597 14.5524 26.4528 13.6375 24.7893Z" fill="#FFFFFF" fill-opacity="0.501961" transform="matrix(-1 0 0 1 1855.9 1576.5)"/><path d="M5.22497-3.43748 32.725-3.4374 32.7249 3.4376 5.22494 3.43752ZM53.35-3.43734 80.85-3.43725 80.8499 3.43775 53.3499 3.43766ZM101.475-3.43719 117.989-3.43714 117.989 3.43786 101.475 3.43781ZM21.2947 18.6287 0.00483927 6.41642e-08 21.2948-18.6286C22.7235-19.8787 24.8952-19.734 26.1454-18.3052 27.3955-16.8764 27.2507-14.7048 25.822-13.4546L7.4886 2.58701 7.48862-2.58696 25.8219 13.4548C27.2506 14.7049 27.3954 16.8766 26.1453 18.3054 24.8951 19.7341 22.7234 19.8789 21.2947 18.6287Z" fill="#FFFFFF" fill-opacity="0.501961" transform="matrix(-1 0 0 1 1855.49 1469.5)"/><path d="M1849.57 1364.13 1823.77 1354.63 1826.15 1348.17 1851.95 1357.68ZM1804.42 1347.5 1778.61 1337.99 1780.99 1331.54 1806.79 1341.05ZM1842.12 1337.87 1855.66 1362.71 1829.24 1372.83C1827.47 1373.51 1825.48 1372.62 1824.8 1370.85 1824.13 1369.08 1825.01 1367.09 1826.78 1366.41L1849.53 1357.69 1847.74 1362.55 1836.08 1341.16C1835.18 1339.49 1835.79 1337.4 1837.46 1336.5 1839.12 1335.59 1841.21 1336.2 1842.12 1337.87Z" fill="#FFFFFF" fill-opacity="0.501961"/><path d="M2021 1386 2127.83 1321 2238 1381 2238 1507.67 2134.51 1571 2021 1512.67 2021 1386Z" stroke="#FFFFFF" stroke-width="13.75" stroke-miterlimit="8" fill="none" fill-rule="evenodd"/><text fill="#FFFFFF" font-family="Calibri,Calibri_MSFontService,sans-serif" font-weight="400" font-size="147" transform="matrix(1 0 0 1 2083.21 1495)">G</text><path d="M2063.94 1300.11C2055.85 1304.78 2053.26 1313.94 2051.55 1322.81 2043.01 1319.86 2033.77 1317.53 2025.69 1322.2 2016.69 1327.39 2013.61 1338.89 2018.8 1347.88 2024 1356.88 2035.5 1359.96 2044.49 1354.76 2052.55 1350.11 2055.04 1341.22 2056.82 1331.94 2065.67 1335.03 2074.66 1337.35 2082.75 1332.68 2091.74 1327.49 2094.82 1315.99 2089.63 1306.99 2084.44 1298 2072.94 1294.92 2063.94 1300.11ZM2049.28 1330.47C2047.51 1339.47 2045.54 1345.24 2040.63 1348.07 2035.33 1351.13 2028.55 1349.32 2025.5 1344.02 2022.44 1338.72 2024.25 1331.95 2029.55 1328.89 2034.5 1326.03 2040.91 1327.31 2049.02 1330.11L2049.28 1330.21ZM2078.88 1325.99C2073.97 1328.83 2067.77 1327.58 2059.36 1324.64L2059.08 1324.55 2059.13 1324.28C2060.76 1315.86 2062.9 1309.63 2067.81 1306.8 2073.1 1303.74 2079.88 1305.56 2082.94 1310.85 2086 1316.15 2084.18 1322.93 2078.88 1325.99Z" fill="#FFFFFF" fill-rule="evenodd"/></g></svg>