<svg width="626" height="656" xmlns="http://www.w3.org/2000/svg" xmlns:xlink="http://www.w3.org/1999/xlink" xml:space="preserve" overflow="hidden"><g transform="translate(-2513 -1821)"><path d="M2591.5 2012.34C2591.5 1962.17 2632.17 1921.5 2682.34 1921.5L3045.66 1921.5C3095.83 1921.5 3136.5 1962.17 3136.5 2012.34L3136.5 2375.66C3136.5 2425.83 3095.83 2466.5 3045.66 2466.5L2682.34 2466.5C2632.17 2466.5 2591.5 2425.83 2591.5 2375.66Z" stroke="#FFFFFF" stroke-width="4.58333" stroke-miterlimit="8" fill="#659146" fill-rule="evenodd"/><path d="M2757 2110 2863.83 2045 2974 2105 2974 2231.67 2870.51 2295 2757 2236.67 2757 2110Z" stroke="#FFFFFF" stroke-width="13.75" stroke-miterlimit="8" fill="none" fill-rule="evenodd"/><text fill="#FFFFFF" font-family="Calibri,Calibri_MSFontService,sans-serif" font-weight="400" font-size="147" transform="matrix(1 0 0 1 2818.84 2219)">G</text><text fill="#FFFFFF" font-family="Arial,Arial_MSFontService,sans-serif" font-weight="400" font-size="92" transform="matrix(1 0 0 1 2672.19 2400)">graphium</text><text fill="#FFFFFF" font-family="Amasis MT Pro,Amasis MT Pro_MSFontService,sans-serif" font-weight="400" font-size="183" transform="matrix(1 0 0 1 2623.62 2053)">∞</text></g></svg>