<?xml version="1.0" encoding="UTF-8" standalone="no"?>
<svg
   xmlns:dc="http://purl.org/dc/elements/1.1/"
   xmlns:cc="http://creativecommons.org/ns#"
   xmlns:rdf="http://www.w3.org/1999/02/22-rdf-syntax-ns#"
   xmlns:svg="http://www.w3.org/2000/svg"
   xmlns="http://www.w3.org/2000/svg"
   xmlns:sodipodi="http://sodipodi.sourceforge.net/DTD/sodipodi-0.dtd"
   xmlns:inkscape="http://www.inkscape.org/namespaces/inkscape"
   width="28.805147mm"
   height="28.83622mm"
   viewBox="0 0 28.805147 28.83622"
   version="1.1"
   id="svg8"
   inkscape:version="1.0.2 (1.0.2+r75+1)"
   sodipodi:docname="logo.svg"
   inkscape:export-filename="/home/hadim/Documents/valence/Platform/Libs/goli/docs/images/logo.png"
   inkscape:export-xdpi="300"
   inkscape:export-ydpi="300">
  <defs
     id="defs2">
    <style
       type="text/css"
       id="style2">
      .cls-1 {
        fill: #ffa056;
      }

      .cls-2 {
        fill: #3d4752;
      }
    </style>
  </defs>
  <sodipodi:namedview
     id="base"
     pagecolor="#ffffff"
     bordercolor="#666666"
     borderopacity="1.0"
     inkscape:pageopacity="0"
     inkscape:pageshadow="2"
     inkscape:zoom="2.8"
     inkscape:cx="106.81132"
     inkscape:cy="86.25023"
     inkscape:document-units="mm"
     inkscape:current-layer="layer1"
     inkscape:document-rotation="0"
     showgrid="false"
     inkscape:showpageshadow="false"
     inkscape:window-width="2102"
     inkscape:window-height="1351"
     inkscape:window-x="2344"
     inkscape:window-y="852"
     inkscape:window-maximized="0"
     fit-margin-top="0"
     fit-margin-left="0"
     fit-margin-right="0"
     fit-margin-bottom="0" />
  <metadata
     id="metadata5">
    <rdf:RDF>
      <cc:Work
         rdf:about="">
        <dc:format>image/svg+xml</dc:format>
        <dc:type
           rdf:resource="http://purl.org/dc/dcmitype/StillImage" />
        <dc:title></dc:title>
      </cc:Work>
    </rdf:RDF>
  </metadata>
  <g
     inkscape:label="Layer 1"
     inkscape:groupmode="layer"
     id="layer1"
     transform="translate(-56.706543,-68.799375)">
    <rect
       style="fill:#f2bb4c;fill-opacity:0.00221719;stroke-width:0.0994262"
       id="rect999"
       width="28.805145"
       height="28.836216"
       x="56.706543"
       y="68.799377"
       inkscape:export-xdpi="300"
       inkscape:export-ydpi="300" />
    <g
       id="g1232"
       transform="translate(-0.1622269,-77.894955)">
      <path
         style="fill:none;stroke:#343a40;stroke-width:0.866803;stroke-linecap:butt;stroke-linejoin:miter;stroke-miterlimit:4;stroke-dasharray:none;stroke-opacity:1"
         d="m 76.445497,161.34884 5.5756,0.1642"
         id="path995-5"
         sodipodi:nodetypes="cc" />
      <path
         style="fill:none;stroke:#343a40;stroke-width:1.30021;stroke-linecap:butt;stroke-linejoin:miter;stroke-miterlimit:4;stroke-dasharray:none;stroke-opacity:1"
         d="m 60.90712,165.96749 6.167988,-3.20283"
         id="path900-3"
         sodipodi:nodetypes="cc" />
      <path
         style="line-height:normal;-inkscape-font-specification:Sans;text-indent:0;text-align:start;text-transform:none;fill:#343a40;fill-opacity:1;stroke-width:0.149993"
         d="m 79.355491,147.20258 c -0.235103,0.0107 -0.46725,0.0809 -0.695583,0.18847 -0.608889,0.28683 -1.209489,0.83705 -1.836706,1.32413 -0.419419,0.32572 -0.76637,0.5976 -1.018371,0.8892 -0.252001,0.29161 -0.407599,0.61144 -0.413713,0.99552 -0.0054,0.34396 0.10154,0.72858 0.327333,1.19365 0.360611,0.74338 1.152579,1.27865 2.000372,1.49327 0.847794,0.21464 1.77385,0.10466 2.377714,-0.52675 0.686597,-0.71809 1.105978,-1.87928 1.113846,-2.97688 0.0054,-0.77843 -0.202394,-1.53345 -0.700131,-2.05386 -0.295687,-0.30917 -0.603076,-0.47474 -0.918353,-0.51709 -0.07882,-0.0106 -0.15804,-0.0132 -0.236408,-0.01 z m 0.0091,0.30928 c 0.06272,-0.003 0.124535,8.5e-4 0.186397,0.01 0.247452,0.0333 0.493907,0.15743 0.754688,0.4301 0.425781,0.44518 0.618776,1.11272 0.613747,1.83156 -0.0072,1.01358 -0.411995,2.11572 -1.027461,2.75941 -0.50907,0.53229 -1.325556,0.64191 -2.104938,0.4446 -0.779381,-0.19731 -1.503587,-0.70332 -1.809428,-1.33379 -0.21327,-0.43929 -0.299731,-0.77387 -0.295508,-1.04385 0.0048,-0.3013 0.113938,-0.53992 0.336426,-0.79739 0.222487,-0.25744 0.559336,-0.52581 0.977454,-0.85053 0.638909,-0.49615 1.235877,-1.02814 1.78215,-1.28547 0.204852,-0.0965 0.398321,-0.15564 0.586473,-0.16431 z m -0.336426,0.61858 c -0.08035,0 -0.145482,0.0692 -0.145482,0.15464 0,0.0854 0.06513,0.15464 0.145482,0.15464 0.08035,0 0.145481,-0.0692 0.145481,-0.15464 0,-0.0854 -0.06513,-0.15464 -0.145481,-0.15464 z m 0.800148,0.30928 c -0.120519,0 -0.218222,0.10385 -0.218222,0.23197 0,0.12811 0.0977,0.23196 0.218222,0.23196 0.120522,0 0.218221,-0.10385 0.218221,-0.23196 0,-0.12812 -0.0977,-0.23197 -0.218221,-0.23197 z m -1.391167,0.61858 c -0.159453,0.0103 -0.307742,0.0377 -0.445539,0.0773 -0.101088,0.0287 -0.197252,0.0618 -0.286415,0.10148 -0.003,8.5e-4 -0.0061,0.003 -0.0091,0.005 -0.04917,0.0221 -0.09545,0.048 -0.140936,0.0725 -0.0079,0.004 -0.0149,0.0101 -0.02273,0.0145 -0.135372,0.0752 -0.253034,0.15832 -0.354611,0.24163 -0.0049,0.004 -0.0088,0.0105 -0.01363,0.0145 -0.275954,0.23033 -0.424533,0.45027 -0.436446,0.46877 a 0.14549616,0.15465884 0 1 0 0.236408,0.17397 c 0,0 0.03343,-0.0402 0.05001,-0.0628 0.112081,-0.11151 0.190946,0.01 0.190946,0.01 0.03622,0.0493 0.03226,0.12027 -0.0045,0.16913 -0.0064,0.009 -0.01652,0.0156 -0.02273,0.0242 -0.23999,0.32979 -0.327334,0.65724 -0.327334,0.65724 a 0.14675469,0.15599663 0 0 0 0.09092,0.18847 c 0.0033,8.5e-4 0.0056,0.003 0.0091,0.005 a 0.14675469,0.15599663 0 0 0 0.01818,0.005 c 0.0073,8.5e-4 0.01547,0 0.02273,0 a 0.14675469,0.15599663 0 0 0 0.03637,-0.005 c 0.0032,-8.5e-4 0.006,-0.003 0.0091,-0.005 a 0.14675469,0.15599663 0 0 0 0.06365,-0.0435 c 0.0035,-0.004 0.006,-0.01 0.0091,-0.0145 a 0.14675469,0.15599663 0 0 0 0.02273,-0.0435 c 0,0 0.0029,-0.0211 0.01364,-0.0531 0.01017,-0.0297 0.02887,-0.0712 0.05002,-0.12081 4.58e-4,-8.5e-4 -4.89e-4,-0.003 0,-0.005 0.02226,-0.0519 0.05075,-0.1094 0.08638,-0.17398 0.01869,-0.0343 0.03625,-0.0653 0.0591,-0.10148 0.02146,-0.0339 0.04288,-0.067 0.06819,-0.10148 0.07721,-0.1061 0.171874,-0.20894 0.286418,-0.29962 0.113215,-0.0894 0.243885,-0.16385 0.400075,-0.21264 0.105961,-0.0323 0.224977,-0.0542 0.354611,-0.058 a 0.14555264,0.15471887 0 0 0 0.122749,-0.0822 c 9.54e-4,-0.002 0.0037,-0.003 0.0045,-0.005 a 0.14555264,0.15471887 0 0 0 0.0045,-0.01 c 5.04e-4,-8.5e-4 -4.9e-4,-0.003 0,-0.005 a 0.14555264,0.15471887 0 0 0 0,-0.005 c 9.53e-4,-0.003 0.0038,-0.007 0.0045,-0.01 a 0.14555264,0.15471887 0 0 0 0.0045,-0.0435 c -4.6e-5,-0.002 9.3e-5,-0.003 0,-0.005 a 0.14555264,0.15471887 0 0 0 -0.01364,-0.058 c -0.0024,-0.005 -0.0062,-0.01 -0.0091,-0.0145 a 0.14555264,0.15471887 0 0 0 -0.02273,-0.029 c -0.0015,-0.002 -0.0029,-0.003 -0.0045,-0.005 a 0.14555264,0.15471887 0 0 0 -0.01364,-0.01 c -0.0034,-0.003 -0.0055,-0.008 -0.0091,-0.01 a 0.14555264,0.15471887 0 0 0 -0.0091,-0.005 c -0.0011,-5.4e-4 -0.0034,5.4e-4 -0.0045,0 a 0.14555264,0.15471887 0 0 0 -0.02273,-0.01 c -0.0015,-3.3e-4 -0.0031,3.2e-4 -0.0045,0 a 0.14555264,0.15471887 0 0 0 -0.03637,-0.005 c -0.05522,0.002 -0.107426,0.008 -0.159121,0.0145 -0.05173,0.007 -0.101506,0.0131 -0.150028,0.0241 -0.03846,0.009 -0.0773,0.0177 -0.113657,0.0291 -0.01479,0.005 -0.02645,0.0143 -0.04092,0.0193 -0.04354,0.015 -0.08678,0.03 -0.127297,0.0483 -0.02218,0.01 -0.04232,0.0231 -0.06365,0.0339 -0.01472,0.008 -0.03116,0.0114 -0.04546,0.0193 -0.05243,0.0287 -0.102944,0.0587 -0.150028,0.0918 -0.0062,0.005 -0.01204,0.01 -0.01818,0.0145 -0.05383,0.0397 -0.127915,0.0307 -0.168213,-0.0241 -0.04408,-0.0601 -0.03136,-0.14954 0.02727,-0.19331 0.0732,-0.0547 0.155631,-0.11002 0.2455,-0.15947 0.02312,-0.0126 0.04852,-0.0219 0.07274,-0.0339 0.154184,-0.0766 0.32958,-0.14168 0.527371,-0.17395 0.05741,-0.009 0.116275,-0.0154 0.177306,-0.0193 a 0.14576548,0.15494511 0 0 0 0.136389,-0.16431 c -9.4e-5,-0.002 1.44e-4,-0.003 0,-0.005 a 0.14576548,0.15494511 0 0 0 -0.01364,-0.0531 c -9.53e-4,-0.002 -0.0035,-0.003 -0.0045,-0.005 a 0.14576548,0.15494511 0 0 0 -0.03182,-0.0435 c -0.0017,-0.002 -0.0029,-0.003 -0.0045,-0.005 a 0.14576548,0.15494511 0 0 0 -0.100018,-0.0339 z m 1.245686,0.46393 c -0.07747,0.009 -0.153872,0.0415 -0.218222,0.0966 -0.170236,0.14566 -0.190603,0.42121 -0.04546,0.59441 v 0.005 l 0.195491,0.24164 h 0.0045 v 0.005 c 0.148637,0.17281 0.401232,0.19034 0.572833,0.0435 0.170236,-0.14567 0.190605,-0.42121 0.04546,-0.59441 v -0.005 l -0.195494,-0.24164 h -0.0045 v -0.005 c -0.07431,-0.0864 -0.174449,-0.13222 -0.277324,-0.14015 -0.02571,-0.002 -0.05147,-0.003 -0.07729,0 z m 0.0045,0.31411 c 0.04724,-0.013 0.105803,0.003 0.136388,0.0387 l 0.195494,0.24163 c 0.04084,0.0475 0.04031,0.10754 -0.0091,0.14981 -0.04924,0.0421 -0.136528,0.0329 -0.177307,-0.0145 l -0.19549,-0.24164 c -0.04085,-0.0475 -0.04031,-0.10754 0.0091,-0.14981 0.0123,-0.0105 0.02517,-0.0198 0.04092,-0.0241 z m -1.168399,0.4591 c -0.600881,0 -1.091112,0.5211 -1.091112,1.15983 0,0.63873 0.490231,1.15982 1.091112,1.15982 0.600881,0 1.091112,-0.52109 1.091112,-1.15982 0,-0.63873 -0.490231,-1.15983 -1.091112,-1.15983 z m 0,0.30929 c 0.443633,0 0.800149,0.37898 0.800149,0.85054 0,0.47156 -0.356516,0.85054 -0.800149,0.85054 -0.443633,0 -0.800149,-0.37898 -0.800149,-0.85054 0,-0.47156 0.356516,-0.85054 0.800149,-0.85054 z m 0.07274,0.77322 c -0.160694,0 -0.290963,0.13847 -0.290963,0.30928 0,0.17082 0.130269,0.30929 0.290963,0.30929 0.160694,0 0.290963,-0.13847 0.290963,-0.30929 0,-0.17081 -0.130269,-0.30928 -0.290963,-0.30928 z m -1.74578,0.30928 c -0.08035,0 -0.145481,0.0692 -0.145481,0.15465 0,0.0854 0.06513,0.15464 0.145481,0.15464 0.08035,0 0.145483,-0.0693 0.145483,-0.15464 0,-0.0854 -0.06513,-0.15465 -0.145483,-0.15465 z"
         overflow="visible"
         font-family="Sans"
         id="path887" />
      <ellipse
         style="fill:none;fill-opacity:0.784314;stroke:#343a40;stroke-width:1.73361;stroke-miterlimit:4;stroke-dasharray:none;stroke-opacity:1;stop-color:#000000"
         id="path898"
         cx="71.493874"
         cy="161.06374"
         rx="4.3042903"
         ry="4.5753546" />
      <path
         style="fill:none;stroke:#343a40;stroke-width:1.73361;stroke-linecap:butt;stroke-linejoin:miter;stroke-miterlimit:4;stroke-dasharray:none;stroke-opacity:1"
         d="m 73.728083,157.41514 2.97058,-4.78737"
         id="path900"
         sodipodi:nodetypes="cc" />
      <ellipse
         style="fill:none;fill-opacity:0.784314;stroke:#343a40;stroke-width:0.78045;stroke-miterlimit:4;stroke-dasharray:none;stroke-opacity:1;stop-color:#000000"
         id="path898-3"
         cx="78.821922"
         cy="171.34465"
         rx="1.9377359"
         ry="2.0597656" />
      <path
         style="fill:none;stroke:#343a40;stroke-width:1.73361;stroke-linecap:butt;stroke-linejoin:miter;stroke-miterlimit:4;stroke-dasharray:none;stroke-opacity:1"
         d="m 60.075507,158.21747 6.954739,1.69057"
         id="path900-6"
         sodipodi:nodetypes="cc" />
      <ellipse
         style="fill:#343a40;fill-opacity:1;stroke:none;stroke-width:0.78045;stroke-miterlimit:4;stroke-dasharray:none;stroke-opacity:1;stop-color:#000000"
         id="path898-3-7"
         cx="59.103836"
         cy="157.93359"
         rx="1.9377359"
         ry="2.0597656" />
      <path
         style="fill:none;stroke:#343a40;stroke-width:1.73361;stroke-linecap:butt;stroke-linejoin:miter;stroke-miterlimit:4;stroke-dasharray:none;stroke-opacity:1"
         d="m 74.817459,164.67805 3.181377,5.28603"
         id="path900-5"
         sodipodi:nodetypes="cc" />
      <path
         style="fill:none;stroke:#343a40;stroke-width:0.866803;stroke-linecap:butt;stroke-linejoin:miter;stroke-miterlimit:4;stroke-dasharray:none;stroke-opacity:1"
         d="m 69.239775,174.15978 1.485855,-7.97704"
         id="path995"
         sodipodi:nodetypes="cc" />
      <ellipse
         style="fill:#343a40;fill-opacity:1;stroke:none;stroke-width:0.50215;stroke-miterlimit:4;stroke-dasharray:none;stroke-opacity:1;stop-color:#000000"
         id="circle997"
         cx="69.205338"
         cy="174.20528"
         rx="1.2467588"
         ry="1.3252739" />
      <path
         style="line-height:normal;-inkscape-font-specification:'Bitstream Vera Sans';text-indent:0;text-align:start;text-transform:none;fill:#343a40;fill-opacity:1;stroke-width:0.108068"
         d="m 60.956682,169.62188 c -0.536098,0 -0.806582,-0.25132 -0.995768,-0.56754 -0.189186,-0.31623 -0.324908,-0.68698 -0.668223,-1.02018 -0.325115,-0.31001 -0.9147,-0.47458 -1.437969,-0.75557 -0.261635,-0.14048 -0.509058,-0.31476 -0.691149,-0.56406 -0.182092,-0.24929 -0.294801,-0.57322 -0.294801,-0.99232 0,-1.04296 0.825418,-1.67129 1.57227,-1.67129 1.000726,0 1.913138,0.7822 2.577881,1.70263 0.664736,0.92042 1.090763,1.97623 1.090763,2.64271 0,0.67359 -0.519329,1.22562 -1.153004,1.22562 z m 0,-0.22284 c 0.0024,0 0.004,2e-5 0.0064,0 l -0.01311,-0.22283 0.07531,-0.003 h 0.0099 l 0.0099,-0.003 0.03273,0.21936 -0.01962,0.003 -0.0064,0.003 c 0.08654,-0.009 0.170819,-0.0334 0.248948,-0.0662 l -0.07205,-0.20891 0.0064,-0.003 0.0099,-0.003 0.05569,-0.0279 0.0032,-0.003 0.0064,-0.003 0.03607,0.0766 0.0099,0.0244 0.05569,0.094 c 0.06816,-0.0402 0.130154,-0.0901 0.186707,-0.14625 l -0.140855,-0.16364 0.01311,-0.0139 0.0064,-0.007 0.04584,-0.0522 0.153954,0.14971 c 0.051,-0.0643 0.09308,-0.13582 0.127747,-0.21239 l -0.186707,-0.0975 0.01311,-0.0279 0.0032,-0.0105 0.01962,-0.0557 0.196534,0.0766 c 0.02518,-0.0796 0.04036,-0.16366 0.04584,-0.2507 l -0.209634,-0.0105 0.0032,-0.0522 v -0.003 -0.007 l -0.0032,-0.0382 0.209634,-0.0105 c -0.0032,-0.0722 -0.01144,-0.15141 -0.02621,-0.23677 l -0.20308,0.0418 -0.01636,-0.0836 v -0.003 l -0.0032,-0.0174 0.199807,-0.0522 c -0.01525,-0.0698 -0.034,-0.14361 -0.05569,-0.21936 l -0.196533,0.0627 -0.0099,-0.0383 v -0.003 h -0.0032 l -0.01637,-0.0592 0.193261,-0.0731 c -0.02169,-0.0685 -0.04568,-0.1371 -0.07205,-0.20891 l -0.193261,0.0766 -0.0099,-0.0279 v -0.003 l -0.02622,-0.0697 0.18998,-0.0836 c -0.02693,-0.0689 -0.05434,-0.13807 -0.08516,-0.20891 l -0.189988,0.0905 -0.01636,-0.0418 -0.0032,-0.003 -0.02296,-0.0487 0.183434,-0.10097 c -0.02979,-0.0653 -0.06212,-0.13233 -0.09499,-0.19847 l -0.183434,0.10097 -0.03932,-0.0731 v -0.003 l -0.0099,-0.0174 0.180161,-0.11142 c -0.03376,-0.0652 -0.06824,-0.12972 -0.10482,-0.19499 l -0.176881,0.1149 -0.05569,-0.094 0.17688,-0.1149 c -0.03686,-0.0635 -0.07197,-0.12853 -0.111366,-0.1915 l -0.176881,0.12186 -0.0032,-0.007 -0.05569,-0.08 0.173599,-0.12884 c -0.04028,-0.0621 -0.08193,-0.12364 -0.124466,-0.18453 l -0.167054,0.1323 -0.04584,-0.0592 v -0.003 l -0.01637,-0.0209 0.163773,-0.13927 c -0.04361,-0.0601 -0.08862,-0.11915 -0.134293,-0.17757 l -0.157227,0.14275 -0.06879,-0.0836 0.1605,-0.14275 c -0.04655,-0.0574 -0.09245,-0.11542 -0.140846,-0.17061 l -0.157227,0.14972 -0.0099,-0.0139 -0.0032,-0.003 -0.05569,-0.0592 0.150674,-0.15669 c -0.05021,-0.0549 -0.102049,-0.10813 -0.153954,-0.16017 l -0.144128,0.16364 -0.05894,-0.0592 v -0.003 l -0.01311,-0.0105 0.137574,-0.17061 c -0.0537,-0.0514 -0.108491,-0.0983 -0.163773,-0.14623 l -0.131028,0.17408 -0.08189,-0.0697 0.13102,-0.1741 c -0.05672,-0.0465 -0.115474,-0.09 -0.1736,-0.1323 l -0.121201,0.17757 -0.0032,-0.003 h -0.0032 l -0.07531,-0.0557 0.111375,-0.18454 c -0.06014,-0.0409 -0.122075,-0.0791 -0.183435,-0.11489 l -0.10482,0.1915 -0.03607,-0.0244 -0.0064,-0.003 -0.04258,-0.0209 0.09172,-0.19847 c -0.06609,-0.0351 -0.132648,-0.0653 -0.199814,-0.094 l -0.07865,0.20543 -0.0622,-0.0279 -0.0099,-0.003 -0.01637,-0.007 0.0622,-0.21239 c -0.06935,-0.0256 -0.139432,-0.0448 -0.209633,-0.0627 l -0.04584,0.21587 -0.09499,-0.0209 0.02947,-0.22284 c -0.09894,-0.0192 -0.198162,-0.0292 -0.298073,-0.0313 l 0.08189,0.007 -0.0099,0.22283 -0.104821,-0.007 0.0099,-0.22285 c -0.004,-3e-5 -0.0087,0 -0.01311,0 -0.07102,0 -0.144096,0.008 -0.216187,0.0209 l 0.02947,0.21936 -0.01636,0.003 -0.07531,0.0174 -0.04909,-0.21588 c -0.07356,0.02 -0.145136,0.0471 -0.216187,0.08 l 0.08517,0.20544 -0.05894,0.0279 -0.02622,0.0139 -0.10154,-0.19498 c -0.06721,0.0382 -0.131767,0.0824 -0.193261,0.1323 -0.08786,0.0714 -0.168595,0.15633 -0.239113,0.25069 l 0.163773,0.13928 -0.01962,0.0244 -0.0064,0.0105 -0.02947,0.0487 -0.1736,-0.12534 c -0.0421,0.0675 -0.07706,0.13879 -0.108093,0.21587 l 0.193252,0.0836 -0.03607,0.0905 -0.0032,0.0105 -0.09499,-0.0382 -0.101548,-0.0313 c -0.0224,0.073 -0.03773,0.14945 -0.04909,0.2298 l 0.20636,0.0348 -0.0099,0.0627 -0.0032,0.0383 -0.20636,-0.0139 c -0.0024,0.0358 -0.0064,0.0709 -0.0064,0.10794 0,0.0587 0.0016,0.11357 0.0064,0.16713 v -0.0418 l 0.209641,-0.0105 v 0.0349 0.0105 l 0.0099,0.0557 -0.20636,0.0313 -0.0099,-0.0626 c 0.01017,0.10644 0.02915,0.204 0.05569,0.29247 l 0.150673,-0.0418 0.04909,-0.0209 0.0032,0.007 0.0032,0.007 0.03273,0.0836 -0.196534,0.0836 c 0.03233,0.0786 0.0703,0.14956 0.114648,0.21588 l 0.170326,-0.12883 0.03273,0.0453 0.0064,0.0105 0.01962,0.0208 -0.157227,0.14972 c 0.04981,0.061 0.103995,0.11816 0.163781,0.17061 l 0.127747,-0.17758 0.08189,0.0697 -0.127747,0.17409 -0.06554,-0.0522 c 0.02105,0.018 0.04337,0.0351 0.06554,0.0522 0.05934,0.0459 0.120908,0.0884 0.186707,0.12883 l 0.108094,-0.1915 0.04258,0.0279 h 0.0032 l 0.03932,0.0244 -0.09499,0.19498 c 0.01565,0.009 0.02995,0.0193 0.04584,0.0279 0.0479,0.0257 0.09776,0.0492 0.1474,0.0731 l 0.08516,-0.20194 0.09827,0.0453 -0.08844,0.20194 c 0.0649,0.0296 0.130495,0.0587 0.196542,0.087 l 0.08189,-0.20543 0.09499,0.0418 v 0.003 l -0.03932,0.10097 -0.03932,0.10097 c 0.0645,0.0275 0.129423,0.0554 0.193253,0.0836 l 0.07865,-0.20194 0.07531,0.0313 v 0.003 h 0.0032 l 0.02296,0.0105 -0.08844,0.20195 c 0.06498,0.0298 0.127604,0.0582 0.189988,0.0905 l 0.08844,-0.19846 0.04584,0.0209 0.0032,0.003 0.04917,0.0279 -0.09827,0.19499 c 0.06061,0.034 0.120716,0.0695 0.17688,0.10794 l 0.108094,-0.19151 0.0099,0.007 0.0032,0.003 h 0.0032 l 0.07531,0.0592 -0.11792,0.18106 c 0.0433,0.0333 0.08522,0.0671 0.124466,0.10446 0.0083,0.008 0.01485,0.0162 0.02296,0.0244 l 0.144128,-0.15668 0.07531,0.0731 0.0032,0.003 v 0.003 l -0.11792,0.12187 -0.02947,0.0313 c 0.04751,0.0523 0.09085,0.10727 0.131027,0.16016 l 0.163773,-0.13927 0.03273,0.0453 h 0.0032 v 0.003 l 0.02947,0.0418 -0.170326,0.13231 c 0.04258,0.061 0.08223,0.12123 0.11792,0.18105 l 0.173607,-0.12187 0.05569,0.094 v 0.003 l 0.0032,0.003 -0.140854,0.0836 -0.03932,0.0279 c 0.0363,0.0647 0.07285,0.12727 0.104821,0.18802 l 0.17688,-0.10445 0.0032,0.007 v 0.003 l 0.04909,0.0836 -0.17688,0.10793 c 0.02987,0.0562 0.05863,0.11383 0.08844,0.16365 0.0072,0.0117 0.01271,0.0236 0.01962,0.0348 l 0.153954,-0.10793 0.01962,-0.0139 h 0.0032 l 0.0032,0.007 0.05243,0.0766 -0.167054,0.1323 c 0.04997,0.0704 0.106267,0.12761 0.170327,0.17758 l 0.114647,-0.15669 0.0099,-0.0208 h 0.0032 l 0.0064,0.007 0.03273,0.0209 0.0099,0.007 0.02296,0.0105 -0.09171,0.20194 c 0.06498,0.0321 0.13983,0.0587 0.229287,0.0731 0.01215,0.002 0.02336,0.005 0.03607,0.007 l -0.0032,-0.003 -0.03273,-0.003 0.03273,-0.21936 0.02622,0.003 h 0.0099 l 0.0622,0.007 -0.01962,0.22284 c 0.03678,0.003 0.0734,0.003 0.114647,0.003 z m -3.354181,-4.8154 0.134301,0.17061 -0.08189,0.0731 -0.134293,-0.17061 z m 2.859574,4.70398 -0.05243,-0.0348 c 0.01708,0.0124 0.03376,0.0239 0.05243,0.0348 z m -0.239121,-1.67128 c -0.230312,0 -0.419267,-0.20087 -0.419267,-0.44568 0,-0.24482 0.188955,-0.44568 0.419267,-0.44568 0.230319,0 0.419274,0.20086 0.419274,0.44568 0,0.24481 -0.188955,0.44568 -0.419274,0.44568 z m 0,-0.22285 c 0.117022,0 0.209641,-0.0985 0.209641,-0.22283 0,-0.12439 -0.09262,-0.22284 -0.209641,-0.22284 -0.117015,0 -0.209634,0.0984 -0.209634,0.22284 0,0.12438 0.09262,0.22283 0.209634,0.22283 z m -1.781912,-0.89134 c -0.403982,0 -0.73372,-0.35052 -0.73372,-0.77994 0,-0.42943 0.329738,-0.77994 0.73372,-0.77994 0.403991,0 0.733729,0.35051 0.733729,0.77994 0,0.42942 -0.329738,0.77994 -0.733729,0.77994 z m 0,-0.22285 c 0.290694,0 0.524096,-0.2481 0.524096,-0.55709 0,-0.309 -0.233402,-0.5571 -0.524096,-0.5571 -0.290685,0 -0.524087,0.2481 -0.524087,0.5571 0,0.30899 0.233402,0.55709 0.524087,0.55709 z m 1.257824,0 c -0.172431,0 -0.314454,-0.15097 -0.314454,-0.33426 0,-0.18328 0.142023,-0.33425 0.314454,-0.33425 0.172424,0 0.314454,0.15097 0.314454,0.33425 0,0.18329 -0.14203,0.33426 -0.314454,0.33426 z m 0,-0.22283 c 0.0591,0 0.104821,-0.0486 0.104821,-0.11143 0,-0.0628 -0.04568,-0.11141 -0.104821,-0.11141 -0.0591,0 -0.10482,0.0486 -0.10482,0.11141 0,0.0628 0.04568,0.11143 0.10482,0.11143 z"
         overflow="visible"
         enable-background="accumulate"
         font-family="'Bitstream Vera Sans'"
         id="path999" />
      <path
         style="line-height:normal;-inkscape-font-specification:'Bitstream Vera Sans';text-indent:0;text-align:start;text-transform:none;fill:#343a40;fill-opacity:1;stroke-width:0.136997"
         d="m 81.48509,158.03871 a 0.13289077,0.14125962 0 0 0 -0.01697,0.002 0.13289077,0.14125962 0 0 0 -0.123951,0.12151 c -0.149302,0.96763 -0.05957,1.68793 0.169987,2.25267 0.20371,0.50112 0.515275,0.87629 0.845988,1.19862 -0.360615,0.15655 -0.716649,0.34691 -1.029251,0.64357 -0.437289,0.415 -0.778892,1.03909 -0.933023,2.038 a 0.13289077,0.14125962 0 1 0 0.262251,0.0457 c 0.146962,-0.95246 0.457863,-1.50279 0.848773,-1.87377 0.390912,-0.37097 0.873798,-0.56333 1.375751,-0.76208 0.501948,-0.19876 1.022971,-0.40391 1.460264,-0.8189 0.17708,-0.16805 0.334703,-0.37192 0.474307,-0.61954 a 0.13289077,0.14125962 0 0 0 0.01223,-0.0247 c 0.198769,-0.36021 0.356735,-0.81206 0.446489,-1.39374 a 0.13289077,0.14125962 0 0 0 -0.138303,-0.16725 0.13289077,0.14125962 0 0 0 -0.12395,0.12151 c -0.0075,0.0489 -0.01722,0.0919 -0.02562,0.13867 l -2.61841,-0.45652 a 0.13289077,0.14125962 0 0 0 -0.01235,-0.003 0.13302338,0.14140058 0 0 0 -0.01236,-0.003 0.13346227,0.1418671 0 0 0 -0.01843,0.28305 l 2.606118,0.45436 c -0.02254,0.0955 -0.0494,0.18688 -0.0758,0.27305 l -2.49548,-0.43507 a 0.13289077,0.14125962 0 0 0 -0.01235,-0.003 0.13302338,0.14140058 0 0 0 -0.01236,-0.003 0.13346014,0.14186484 0 0 0 -0.01843,0.28304 l 2.446309,0.42651 c -0.03754,0.0948 -0.0783,0.18244 -0.12087,0.26519 l -2.184058,-0.38078 a 0.13289077,0.14125962 0 0 0 -0.01235,-0.003 0.13302338,0.14140058 0 0 0 -0.01236,-0.003 0.13346097,0.14186573 0 0 0 -0.01843,0.28305 l 2.07342,0.36149 c -0.06164,0.0916 -0.1264,0.176 -0.194625,0.25234 a 0.13289077,0.14125962 0 0 0 -0.0205,-0.003 l -1.585799,-0.27649 a 0.13289077,0.14125962 0 0 0 -0.01236,-0.003 0.13302338,0.14140058 0 0 0 -0.01235,-0.003 0.13346364,0.14186856 0 0 0 -0.01843,0.28306 l 1.401402,0.24432 c -0.104069,0.0862 -0.211804,0.16111 -0.325754,0.22947 l -0.516305,-0.09 a 0.13289077,0.14125962 0 0 0 -0.01236,-0.003 0.13302338,0.14140058 0 0 0 -0.01236,-0.003 0.13346014,0.14186484 0 0 0 -0.01843,0.28305 l 0.139317,0.0243 c -0.07468,0.0337 -0.1492,0.0677 -0.225734,0.0993 -0.364258,-0.32285 -0.694473,-0.65875 -0.904504,-1.11937 -0.212258,-0.46552 -0.307272,-1.06298 -0.173974,-1.92684 a 0.13289077,0.14125962 0 0 0 -0.12124,-0.16875 0.13289077,0.14125962 0 0 0 -0.01696,0.002 0.13289077,0.14125962 0 0 0 -0.123951,0.12152 c -0.139843,0.90629 -0.03968,1.5747 0.198279,2.09657 0.211352,0.46353 0.527626,0.80272 0.860102,1.10716 -0.0017,7.6e-4 -0.003,0.003 -0.0046,0.004 -0.04917,0.0193 -0.09857,0.0395 -0.147996,0.0592 -0.356996,-0.33308 -0.680775,-0.69587 -0.884212,-1.19634 -0.207215,-0.50976 -0.295725,-1.16508 -0.152531,-2.09307 a 0.13289077,0.14125962 0 0 0 -0.12124,-0.16874 z m 4.064887,0.70869 a 0.13289077,0.14125962 0 0 0 -0.01696,0.002 0.13289077,0.14125962 0 0 0 -0.123951,0.12151 c -0.157407,1.02013 -0.480621,1.63482 -0.880428,2.05163 -0.399806,0.41683 -0.883583,0.63748 -1.384422,0.84556 -0.500838,0.20808 -1.017628,0.39949 -1.448772,0.7717 -0.431147,0.37221 -0.76628,0.93007 -0.904192,1.82385 a 0.13289077,0.14125962 0 1 0 0.262251,0.0457 c 0.129849,-0.84154 0.425306,-1.31612 0.809728,-1.64799 0.384422,-0.33187 0.868181,-0.51618 1.374474,-0.72651 0.506285,-0.21035 1.035828,-0.44817 1.478473,-0.90966 0.442644,-0.46149 0.791016,-1.14495 0.955137,-2.20858 a 0.13289077,0.14125962 0 0 0 -0.12124,-0.16875 z m -1.73278,3.29411 a 0.13289077,0.14125962 0 0 0 -0.08815,0.24405 c 0.563336,0.5845 0.956183,1.27532 0.733614,2.71772 a 0.13289077,0.14125962 0 1 0 0.262248,0.0457 c 0.233386,-1.51252 -0.216036,-2.34441 -0.813405,-2.96422 a 0.13289077,0.14125962 0 0 0 -0.0943,-0.0432 z m -0.431691,0.17967 a 0.13289077,0.14125962 0 0 0 -0.01696,0.002 0.13289077,0.14125962 0 0 0 -0.08406,0.24477 c 0.07115,0.0719 0.140665,0.14479 0.206013,0.21931 l -0.868706,-0.15145 a 0.13289077,0.14125962 0 0 0 -0.01235,-0.003 0.13302338,0.14140058 0 0 0 -0.01236,-0.003 0.13346186,0.14186667 0 0 0 -0.01842,0.28305 l 1.167835,0.20361 c 0.06522,0.0992 0.123817,0.20495 0.174164,0.31663 l -1.897221,-0.33077 a 0.13289077,0.14125962 0 0 0 -0.01236,-0.003 0.13302338,0.14140058 0 0 0 -0.01236,-0.003 0.13346364,0.14186856 0 0 0 -0.01843,0.28306 l 2.048836,0.3572 c 0.02618,0.0938 0.04449,0.19191 0.05943,0.29663 l -2.413528,-0.42079 a 0.13289077,0.14125962 0 0 0 -0.01235,-0.003 0.13302338,0.14140058 0 0 0 -0.01236,-0.003 0.13346097,0.14186573 0 0 0 -0.01843,0.28305 l 2.48319,0.43294 c 0.0033,0.092 0.0033,0.18512 -0.0021,0.28591 l -2.602019,-0.45365 a 0.13289077,0.14125962 0 0 0 -0.01235,-0.003 0.13302338,0.14140058 0 0 0 -0.01236,-0.003 0.13346014,0.14186484 0 0 0 -0.01843,0.28305 l 2.618411,0.4565 c -0.0057,0.0461 -0.01,0.0922 -0.01739,0.14012 a 0.13289077,0.14125962 0 1 0 0.262251,0.0457 c 0.015,-0.0972 0.02261,-0.1896 0.03073,-0.2809 a 0.13289077,0.14125962 0 0 0 0.0033,-0.0218 c 1.94e-4,-0.003 0.0011,-0.006 0.0014,-0.008 a 0.13289077,0.14125962 0 0 0 7.3e-4,-0.003 c 0.09251,-1.15598 -0.35279,-1.84965 -0.900109,-2.40234 a 0.13289077,0.14125962 0 0 0 -0.08201,-0.0411 z"
         id="path1030" />
      <path
         style="line-height:normal;-inkscape-font-specification:'Bitstream Vera Sans';text-indent:0;text-align:start;text-transform:none;fill:#343a40;fill-opacity:1"
         d="m 65.518617,146.69433 c -0.140997,0 -0.255298,0.12151 -0.255298,0.27139 0,0.14844 0.112173,0.26908 0.25131,0.27137 l 0.554477,1.08127 c -0.02348,0.041 -0.03989,0.0884 -0.03989,0.13993 0,0.0749 0.02959,0.1417 0.07579,0.19081 l -0.594368,1.16607 c -0.09103,0.003 -0.168509,0.057 -0.21142,0.13569 h -0.837701 c -0.04418,-0.081 -0.124987,-0.13569 -0.219398,-0.13569 -0.140998,0 -0.255299,0.1215 -0.255299,0.27138 0,0.14987 0.114301,0.27138 0.255299,0.27138 0.09441,0 0.175226,-0.0547 0.219398,-0.13569 h 0.837701 c 0.04291,0.0787 0.12039,0.13268 0.21142,0.13569 l 0.594368,1.16606 c -0.0462,0.0491 -0.07579,0.11588 -0.07579,0.19082 0,0.0515 0.01641,0.0989 0.03989,0.13993 l -0.554477,1.08127 c -0.139137,0.002 -0.25131,0.12293 -0.25131,0.27137 0,0.14988 0.114301,0.27138 0.255298,0.27138 0.140999,0 0.2553,-0.1215 0.2553,-0.27138 0,-0.0515 -0.01641,-0.0989 -0.03989,-0.13992 l 0.558467,-1.08127 c 0.09103,-0.003 0.168508,-0.057 0.211419,-0.13569 h 1.3483 c 0.04418,0.081 0.124988,0.13569 0.219398,0.13569 l 0.398904,0.74628 a 0.12864348,0.13674485 0 0 0 0.223387,-0.13569 l -0.402894,-0.74628 c 0.0218,-0.0399 0.0359,-0.0862 0.0359,-0.13569 0,-0.0749 -0.02959,-0.1417 -0.07579,-0.19082 l 0.594369,-1.16606 c 0.09103,-0.003 0.168508,-0.057 0.21142,-0.13569 h 0.837701 c 0.04418,0.081 0.124987,0.13569 0.219397,0.13569 0.140998,0 0.255299,-0.12151 0.255299,-0.27138 0,-0.14988 -0.114301,-0.27138 -0.255299,-0.27138 -0.09441,0 -0.175226,0.0547 -0.219397,0.13569 h -0.837701 c -0.04354,-0.0798 -0.122689,-0.13416 -0.215409,-0.13569 l -0.59038,-1.16607 c 0.0462,-0.0491 0.07579,-0.11587 0.07579,-0.19081 0,-0.0516 -0.01641,-0.0989 -0.03989,-0.13993 l 0.554478,-1.08127 c 0.09272,-0.002 0.171867,-0.0558 0.215409,-0.13568 h 1.184748 a 0.12766239,0.13570198 0 1 0 0,-0.27139 h -1.184748 c -0.04418,-0.081 -0.124988,-0.13569 -0.219398,-0.13569 -0.140998,0 -0.2553,0.12151 -0.2553,0.27139 0,0.0515 0.01641,0.0989 0.03989,0.13992 l -0.558467,1.08127 c -0.09103,0.003 -0.168509,0.057 -0.21142,0.13569 h -1.348298 c -0.04354,-0.0798 -0.122688,-0.13416 -0.215409,-0.13569 l -0.554478,-1.08127 c 0.02348,-0.041 0.03989,-0.0884 0.03989,-0.13992 0,-0.14988 -0.114301,-0.27139 -0.255298,-0.27139 z m 0.985296,1.89965 h 1.3483 c 0.0318,0.0584 0.08194,0.10258 0.143605,0.12296 l 0.626281,1.22544 c -0.02459,0.0417 -0.03989,0.0913 -0.03989,0.14417 0,0.0529 0.01529,0.10245 0.03989,0.14417 l -0.626281,1.22543 c -0.06166,0.0203 -0.111802,0.0647 -0.143605,0.12297 h -1.3483 c -0.03181,-0.0583 -0.08194,-0.10258 -0.143605,-0.12297 l -0.626281,-1.22543 c 0.02459,-0.0417 0.03989,-0.0913 0.03989,-0.14417 0,-0.0529 -0.01529,-0.10246 -0.03989,-0.14417 l 0.626281,-1.22544 c 0.06166,-0.0204 0.111802,-0.0647 0.143605,-0.12296 z"
         stroke-width="0.263215"
         overflow="visible"
         enable-background="accumulate"
         font-family="'Bitstream Vera Sans'"
         id="path1061" />
      <path
         style="fill:none;stroke:#343a40;stroke-width:0.866803;stroke-linecap:butt;stroke-linejoin:miter;stroke-miterlimit:4;stroke-dasharray:none;stroke-opacity:1"
         d="m 69.817916,157.04434 -1.822098,-5.58819"
         id="path995-6"
         sodipodi:nodetypes="cc" />
    </g>
  </g>
</svg>
