<?xml version="1.0" encoding="UTF-8" standalone="no"?>
<svg
   width="229.75"
   height="275.90289"
   xml:space="preserve"
   overflow="hidden"
   version="1.1"
   id="svg10"
   sodipodi:docname="logo-mini-dark.svg"
   inkscape:version="1.1 (c68e22c387, 2021-05-23)"
   xmlns:inkscape="http://www.inkscape.org/namespaces/inkscape"
   xmlns:sodipodi="http://sodipodi.sourceforge.net/DTD/sodipodi-0.dtd"
   xmlns="http://www.w3.org/2000/svg"
   xmlns:svg="http://www.w3.org/2000/svg"><defs
     id="defs14" /><sodipodi:namedview
     id="namedview12"
     pagecolor="#ffffff"
     bordercolor="#666666"
     borderopacity="1.0"
     inkscape:pageshadow="2"
     inkscape:pageopacity="0.0"
     inkscape:pagecheckerboard="0"
     showgrid="false"
     inkscape:zoom="2.6479751"
     inkscape:cx="114.99353"
     inkscape:cy="159.55588"
     inkscape:window-width="1920"
     inkscape:window-height="1009"
     inkscape:window-x="3832"
     inkscape:window-y="-8"
     inkscape:window-maximized="1"
     inkscape:current-layer="g8" /><g
     transform="translate(-4011.125,-2023.9863)"
     id="g8"><path
       d="m 4018,2107 106.34,-65 109.66,60 v 126.67 L 4130.98,2292 4018,2233.67 Z"
       stroke="#000000"
       stroke-width="13.75"
       stroke-miterlimit="8"
       fill="none"
       fill-rule="evenodd"
       id="path2" /><g
       aria-label="G"
       transform="translate(4079.45,2216)"
       id="text4"
       style="font-size:147px;font-family:Calibri, Calibri_MSFontService, sans-serif"><path
         d="m 82.113281,-80.24707 q 0,1.363769 -0.143554,2.440429 -0.143555,1.004883 -0.430665,1.722657 -0.287109,0.645996 -0.717773,0.933105 -0.430664,0.287109 -0.933105,0.287109 -0.861329,0 -2.871094,-1.363769 -2.009766,-1.36377 -5.383301,-3.014648 -3.373535,-1.650879 -8.11084,-3.014649 -4.665527,-1.363769 -11.125488,-1.363769 -7.680176,0 -13.78125,2.799316 -6.101074,2.799316 -10.335938,7.751953 -4.234863,4.952637 -6.531738,11.771484 -2.225098,6.818848 -2.225098,14.786133 0,8.900391 2.44043,15.791016 2.512207,6.890625 6.890625,11.62793 4.378418,4.737304 10.407715,7.177734 6.101074,2.4404296 13.350586,2.4404296 4.306641,0 8.685059,-1.0048826 4.450195,-1.07666 8.254394,-3.158203 V -40.697754 H 48.019043 q -1.220215,0 -1.866211,-1.220215 -0.574219,-1.220215 -0.574219,-3.804199 0,-1.363769 0.143555,-2.296875 0.143555,-1.004883 0.430664,-1.579102 0.358887,-0.645996 0.789551,-0.933105 0.430664,-0.287109 1.07666,-0.287109 h 29.500488 q 0.789551,0 1.579102,0.287109 0.789551,0.287109 1.435547,0.861328 0.645996,0.574219 1.004882,1.579102 0.358887,1.004883 0.358887,2.296875 v 35.38623 q 0,1.8662111 -0.645996,3.2299806 -0.645996,1.3637696 -2.727539,2.4404297 -2.081543,1.0048828 -5.383301,2.2250977 -3.301758,1.2202148 -6.818847,2.08154294 -3.51709,0.86132812 -7.105957,1.29199219 -3.588868,0.43066407 -7.105957,0.43066407 -10.766602,0 -19.236329,-3.3017578 -8.469726,-3.3735352 -14.355468,-9.5463864 -5.813965,-6.172852 -8.9003909,-14.786133 -3.0864258,-8.613281 -3.0864258,-19.236328 0,-11.053711 3.3017578,-20.025879 3.3735349,-8.972168 9.4028319,-15.288574 6.101074,-6.316407 14.570801,-9.761719 8.541504,-3.51709 18.877441,-3.51709 5.311524,0 9.977051,0.933105 4.665527,0.933106 8.254395,2.225098 3.660644,1.220215 6.101074,2.727539 2.512207,1.435547 3.445312,2.368653 0.933106,0.933105 1.291993,2.15332 0.358886,1.220215 0.358886,3.51709 z"
         style="font-size:147px;font-family:Calibri, Calibri_MSFontService, sans-serif"
         id="path9" /></g><path
       d="m 4060.6,2026.42 c -7.6,4.45 -10,13.11 -11.57,21.5 -8.08,-2.74 -16.8,-4.89 -24.41,-0.44 -8.46,4.95 -11.3,15.82 -6.35,24.28 4.95,8.46 15.82,11.3 24.28,6.35 7.59,-4.43 9.88,-12.83 11.51,-21.6 8.37,2.86 16.87,5 24.47,0.54 8.46,-4.95 11.31,-15.82 6.35,-24.28 -4.95,-8.46 -15.82,-11.3 -24.28,-6.35 z m -13.67,28.74 c -1.62,8.51 -3.44,13.96 -8.06,16.66 -4.98,2.92 -11.39,1.24 -14.31,-3.74 -2.91,-4.98 -1.24,-11.39 3.75,-14.31 4.65,-2.72 10.71,-1.54 18.38,1.05 l 0.25,0.09 z m 27.92,-4.4 c -4.63,2.71 -10.48,1.56 -18.43,-1.16 l -0.26,-0.09 0.04,-0.25 c 1.48,-7.96 3.47,-13.84 8.09,-16.54 4.98,-2.92 11.38,-1.25 14.3,3.74 2.92,4.98 1.24,11.38 -3.74,14.3 z"
       fill-rule="evenodd"
       id="path6" /></g></svg>
