<?xml version="1.0" encoding="UTF-8" standalone="no"?>
<svg
   width="673.875"
   height="280.77603"
   xml:space="preserve"
   overflow="hidden"
   version="1.1"
   id="svg12"
   sodipodi:docname="logo-dark-large.svg"
   inkscape:version="1.1 (c68e22c387, 2021-05-23)"
   xmlns:inkscape="http://www.inkscape.org/namespaces/inkscape"
   xmlns:sodipodi="http://sodipodi.sourceforge.net/DTD/sodipodi-0.dtd"
   xmlns="http://www.w3.org/2000/svg"
   xmlns:svg="http://www.w3.org/2000/svg"><defs
     id="defs16" /><sodipodi:namedview
     id="namedview14"
     pagecolor="#ffffff"
     bordercolor="#666666"
     borderopacity="1.0"
     inkscape:pageshadow="2"
     inkscape:pageopacity="0.0"
     inkscape:pagecheckerboard="0"
     showgrid="false"
     inkscape:zoom="1.5594203"
     inkscape:cx="328.64777"
     inkscape:cy="161.91914"
     inkscape:window-width="1920"
     inkscape:window-height="1009"
     inkscape:window-x="3832"
     inkscape:window-y="-8"
     inkscape:window-maximized="1"
     inkscape:current-layer="g10" /><g
     transform="translate(-1832.125,-2051.1044)"
     id="g10"><path
       d="m 1839,2139 106.83,-65 110.17,60 v 126.67 L 1952.51,2324 1839,2265.67 Z"
       stroke="#000000"
       stroke-width="13.75"
       stroke-miterlimit="8"
       fill="none"
       fill-rule="evenodd"
       id="path2" /><path
       d="m 1881.69,2053.63 c -8.09,4.67 -10.68,13.83 -12.4,22.7 -8.54,-2.95 -17.77,-5.29 -25.85,-0.62 -9,5.2 -12.08,16.7 -6.89,25.69 5.19,8.99 16.69,12.07 25.69,6.88 8.06,-4.65 10.55,-13.54 12.33,-22.82 8.85,3.09 17.84,5.4 25.92,0.73 9,-5.19 12.08,-16.69 6.89,-25.68 -5.2,-8.99 -16.7,-12.08 -25.69,-6.88 z m -14.67,30.36 c -1.77,9 -3.73,14.77 -8.64,17.6 -5.3,3.06 -12.08,1.24 -15.14,-4.05 -3.06,-5.3 -1.24,-12.08 4.06,-15.14 4.95,-2.85 11.36,-1.57 19.47,1.23 l 0.26,0.1 z m 29.61,-4.49 c -4.92,2.84 -11.11,1.59 -19.52,-1.34 l -0.28,-0.09 0.05,-0.28 c 1.62,-8.42 3.76,-14.64 8.67,-17.47 5.3,-3.06 12.08,-1.25 15.14,4.05 3.05,5.3 1.24,12.07 -4.06,15.13 z"
       fill-rule="evenodd"
       id="path4" /><path
       d="m 2215.53,2200.34 c -1.63,0.54 -4.21,1.19 -7.74,1.95 -3.53,0.75 -5.84,1.5 -6.93,2.22 -1.66,1.18 -2.49,2.68 -2.49,4.49 0,1.78 0.67,3.32 1.99,4.62 1.33,1.3 3.02,1.95 5.07,1.95 2.3,0 4.49,-0.75 6.57,-2.26 1.54,-1.15 2.55,-2.56 3.03,-4.22 0.33,-1.09 0.5,-3.16 0.5,-6.21 z m 48.02,-16.05 c -3.11,0 -5.69,1.2 -7.74,3.61 -2.05,2.4 -3.08,5.96 -3.08,10.67 0,5.41 1.07,9.41 3.22,11.99 2.14,2.59 4.75,3.88 7.83,3.88 2.95,0 5.41,-1.19 7.38,-3.56 1.96,-2.37 2.94,-6.26 2.94,-11.67 0,-5.05 -1.01,-8.8 -3.03,-11.25 -2.03,-2.44 -4.53,-3.67 -7.52,-3.67 z m -150.01,-0.32 c -3.05,0 -5.56,1.19 -7.54,3.56 -1.97,2.38 -2.96,5.99 -2.96,10.86 0,5.11 0.99,8.85 2.96,11.22 1.98,2.37 4.42,3.56 7.31,3.56 3.11,0 5.74,-1.22 7.88,-3.65 2.14,-2.43 3.22,-6.04 3.22,-10.81 0,-4.99 -1.03,-8.69 -3.08,-11.11 -2.05,-2.42 -4.65,-3.63 -7.79,-3.63 z m 267.48,-8.65 h 12.73 v 22.12 c 0,6.77 0.23,10.92 0.7,12.44 0.47,1.53 1.32,2.74 2.56,3.63 1.23,0.89 2.8,1.34 4.7,1.34 2.18,0 4.12,-0.6 5.84,-1.79 1.72,-1.2 2.9,-2.68 3.53,-4.45 0.64,-1.76 0.95,-6.09 0.95,-12.98 v -20.31 h 12.73 v 48.14 h -11.82 v -7.21 c -1.75,2.57 -4.05,4.6 -6.9,6.08 -2.86,1.48 -5.87,2.22 -9.03,2.22 -3.23,0 -6.13,-0.71 -8.7,-2.13 -2.56,-1.42 -4.42,-3.42 -5.57,-5.99 -1.14,-2.57 -1.72,-6.12 -1.72,-10.65 z m -23.76,0 h 12.72 v 48.14 h -12.72 z m 104.74,-1.09 c 3.08,0 5.75,0.63 8.01,1.9 2.26,1.27 4.12,3.19 5.57,5.76 2.11,-2.57 4.39,-4.49 6.83,-5.76 2.45,-1.27 5.06,-1.9 7.84,-1.9 3.53,0 6.51,0.71 8.96,2.15 2.44,1.44 4.27,3.54 5.48,6.32 0.87,2.06 1.31,5.38 1.31,9.98 v 30.78 h -12.72 v -27.52 c 0,-4.77 -0.44,-7.86 -1.31,-9.25 -1.18,-1.81 -2.99,-2.72 -5.44,-2.72 -1.78,0 -3.45,0.55 -5.02,1.64 -1.57,1.08 -2.7,2.68 -3.4,4.78 -0.69,2.1 -1.04,5.42 -1.04,9.95 v 23.12 h -12.72 v -26.38 c 0,-4.69 -0.23,-7.71 -0.68,-9.07 -0.45,-1.36 -1.15,-2.37 -2.1,-3.04 -0.95,-0.66 -2.24,-1 -3.87,-1 -1.97,0 -3.73,0.53 -5.3,1.59 -1.57,1.06 -2.69,2.58 -3.37,4.58 -0.68,1.99 -1.02,5.3 -1.02,9.93 v 23.39 h -12.72 v -48.14 h 11.72 v 6.57 c 4.2,-5.11 9.19,-7.66 14.99,-7.66 z m -195.01,0 c 5.58,0 10.32,2.19 14.22,6.57 3.89,4.38 5.84,10.49 5.84,18.32 0,8.04 -1.97,14.28 -5.89,18.74 -3.92,4.46 -8.68,6.69 -14.26,6.69 -2.66,0 -5.06,-0.53 -7.22,-1.59 -2.16,-1.06 -4.43,-2.87 -6.81,-5.44 v 24.26 h -12.72 v -66.46 h 11.86 v 7.07 c 1.54,-2.42 3.62,-4.38 6.24,-5.9 2.63,-1.51 5.54,-2.26 8.74,-2.26 z m -59.2,0 c 5.67,0 9.9,0.67 12.67,2.01 2.78,1.35 4.73,3.06 5.87,5.13 1.13,2.07 1.69,5.87 1.69,11.4 l -0.13,14.87 c 0,4.23 0.2,7.35 0.61,9.36 0.41,2.01 1.17,4.16 2.28,6.46 h -12.58 c -0.33,-0.85 -0.74,-2.1 -1.22,-3.76 -0.21,-0.76 -0.37,-1.26 -0.46,-1.5 -2.17,2.12 -4.49,3.7 -6.97,4.76 -2.47,1.06 -5.11,1.59 -7.92,1.59 -4.95,0 -8.85,-1.35 -11.7,-4.04 -2.85,-2.69 -4.28,-6.09 -4.28,-10.2 0,-2.72 0.65,-5.14 1.95,-7.27 1.29,-2.13 3.11,-3.77 5.45,-4.9 2.34,-1.13 5.71,-2.12 10.12,-2.97 5.95,-1.12 10.06,-2.16 12.36,-3.13 v -1.27 c 0,-2.44 -0.6,-4.19 -1.81,-5.23 -1.21,-1.04 -3.49,-1.57 -6.84,-1.57 -2.26,0 -4.03,0.45 -5.29,1.34 -1.27,0.89 -2.3,2.46 -3.08,4.69 l -11.55,-2.08 c 1.3,-4.66 3.53,-8.1 6.7,-10.34 3.17,-2.23 7.88,-3.35 14.13,-3.35 z m -34.33,0 c 2.89,0 5.68,0.8 8.37,2.4 l -3.94,11.11 c -2.14,-1.39 -4.13,-2.09 -5.97,-2.09 -1.78,0 -3.29,0.49 -4.53,1.47 -1.24,0.99 -2.21,2.76 -2.92,5.33 -0.71,2.57 -1.06,7.95 -1.06,16.14 v 14.87 h -12.73 v -48.14 h 11.82 v 6.84 c 2.02,-3.23 3.84,-5.36 5.46,-6.39 1.61,-1.03 3.44,-1.54 5.5,-1.54 z m -63.18,0 c 5.95,0 10.85,2.61 14.71,7.84 v -6.75 h 11.91 v 43.2 c 0,5.68 -0.47,9.93 -1.4,12.74 -0.94,2.81 -2.25,5.02 -3.94,6.62 -1.69,1.6 -3.95,2.85 -6.77,3.76 -2.82,0.91 -6.39,1.36 -10.71,1.36 -8.14,0 -13.92,-1.4 -17.33,-4.19 -3.42,-2.8 -5.12,-6.34 -5.12,-10.63 0,-0.43 0.02,-0.94 0.05,-1.55 l 14.53,1.77 c 0.24,1.69 0.8,2.86 1.67,3.49 1.21,0.91 3.11,1.36 5.71,1.36 3.32,0 5.81,-0.5 7.47,-1.49 1.11,-0.67 1.96,-1.74 2.53,-3.22 0.39,-1.06 0.59,-3.01 0.59,-5.85 v -7.03 c -3.8,5.2 -8.6,7.8 -14.4,7.8 -6.46,0 -11.57,-2.73 -15.34,-8.21 -2.96,-4.32 -4.44,-9.7 -4.44,-16.13 0,-8.07 1.94,-14.24 5.82,-18.5 3.88,-4.26 8.7,-6.39 14.46,-6.39 z M 2357.26,2157 h 12.72 v 11.79 h -12.72 z m -58.42,0 h 12.72 v 24.44 c 4.1,-4.81 9.01,-7.21 14.71,-7.21 2.93,0 5.57,0.54 7.92,1.63 2.36,1.09 4.13,2.48 5.32,4.17 1.2,1.69 2.01,3.57 2.45,5.62 0.44,2.06 0.65,5.25 0.65,9.57 v 28.24 h -12.72 v -25.43 c 0,-5.05 -0.24,-8.25 -0.72,-9.61 -0.48,-1.36 -1.34,-2.44 -2.56,-3.24 -1.22,-0.81 -2.75,-1.21 -4.59,-1.21 -2.12,0 -4,0.52 -5.66,1.55 -1.66,1.02 -2.88,2.57 -3.65,4.64 -0.77,2.07 -1.15,5.13 -1.15,9.18 v 24.12 h -12.72 z"
       fill-rule="evenodd"
       id="path6" /><g
       aria-label="G"
       transform="translate(1904.26,2247)"
       id="text8"
       style="font-size:147px;font-family:Calibri, Calibri_MSFontService, sans-serif"><path
         d="m 82.113281,-80.24707 q 0,1.363769 -0.143554,2.440429 -0.143555,1.004883 -0.430665,1.722657 -0.287109,0.645996 -0.717773,0.933105 -0.430664,0.287109 -0.933105,0.287109 -0.861329,0 -2.871094,-1.363769 -2.009766,-1.36377 -5.383301,-3.014648 -3.373535,-1.650879 -8.11084,-3.014649 -4.665527,-1.363769 -11.125488,-1.363769 -7.680176,0 -13.78125,2.799316 -6.101074,2.799316 -10.335938,7.751953 -4.234863,4.952637 -6.531738,11.771484 -2.225098,6.818848 -2.225098,14.786133 0,8.900391 2.44043,15.791016 2.512207,6.890625 6.890625,11.62793 4.378418,4.737304 10.407715,7.177734 6.101074,2.4404296 13.350586,2.4404296 4.306641,0 8.685059,-1.0048826 4.450195,-1.07666 8.254394,-3.158203 V -40.697754 H 48.019043 q -1.220215,0 -1.866211,-1.220215 -0.574219,-1.220215 -0.574219,-3.804199 0,-1.363769 0.143555,-2.296875 0.143555,-1.004883 0.430664,-1.579102 0.358887,-0.645996 0.789551,-0.933105 0.430664,-0.287109 1.07666,-0.287109 h 29.500488 q 0.789551,0 1.579102,0.287109 0.789551,0.287109 1.435547,0.861328 0.645996,0.574219 1.004882,1.579102 0.358887,1.004883 0.358887,2.296875 v 35.38623 q 0,1.8662111 -0.645996,3.2299806 -0.645996,1.3637696 -2.727539,2.4404297 -2.081543,1.0048828 -5.383301,2.2250977 -3.301758,1.2202148 -6.818847,2.08154294 -3.51709,0.86132812 -7.105957,1.29199219 -3.588868,0.43066407 -7.105957,0.43066407 -10.766602,0 -19.236329,-3.3017578 -8.469726,-3.3735352 -14.355468,-9.5463864 -5.813965,-6.172852 -8.9003909,-14.786133 -3.0864258,-8.613281 -3.0864258,-19.236328 0,-11.053711 3.3017578,-20.025879 3.3735349,-8.972168 9.4028319,-15.288574 6.101074,-6.316407 14.570801,-9.761719 8.541504,-3.51709 18.877441,-3.51709 5.311524,0 9.977051,0.933105 4.665527,0.933106 8.254395,2.225098 3.660644,1.220215 6.101074,2.727539 2.512207,1.435547 3.445312,2.368653 0.933106,0.933105 1.291993,2.15332 0.358886,1.220215 0.358886,3.51709 z"
         style="font-size:147px;font-family:Calibri, Calibri_MSFontService, sans-serif"
         id="path833" /></g></g></svg>
